<?xml version="1.0" encoding="UTF-8" standalone="no"?>
<!-- Generator: Adobe Illustrator 17.0.0, SVG Export Plug-In . SVG Version: 6.00 Build 0)  -->

<svg
   xmlns:dc="http://purl.org/dc/elements/1.1/"
   xmlns:cc="http://creativecommons.org/ns#"
   xmlns:rdf="http://www.w3.org/1999/02/22-rdf-syntax-ns#"
   xmlns:svg="http://www.w3.org/2000/svg"
   xmlns="http://www.w3.org/2000/svg"
   xmlns:sodipodi="http://sodipodi.sourceforge.net/DTD/sodipodi-0.dtd"
   xmlns:inkscape="http://www.inkscape.org/namespaces/inkscape"
   version="1.1"
   id="svg2"
   sodipodi:docname="1.svg"
   inkscape:version="0.48.5 r10040"
   x="0px"
   y="0px"
   width="52.88px"
   height="52.88px"
   viewBox="0 0 52.88 52.88"
   enable-background="new 0 0 52.88 52.88"
   xml:space="preserve"><metadata
   id="metadata9"><rdf:RDF><cc:Work
       rdf:about=""><dc:format>image/svg+xml</dc:format><dc:type
         rdf:resource="http://purl.org/dc/dcmitype/StillImage" /></cc:Work></rdf:RDF></metadata><defs
   id="defs7" />
<sodipodi:namedview
   id="base"
   fit-margin-top="0"
   fit-margin-left="0"
   showgrid="false"
   inkscape:cy="-19.049088"
   pagecolor="#ffffff"
   inkscape:cx="47.801946"
   inkscape:zoom="1.4"
   borderopacity="1.0"
   bordercolor="#666666"
   inkscape:window-maximized="1"
   inkscape:window-y="-8"
   inkscape:window-x="-8"
   inkscape:window-height="705"
   inkscape:window-width="1366"
   inkscape:current-layer="layer1"
   inkscape:document-units="px"
   fit-margin-bottom="0"
   inkscape:pageopacity="0.0"
   fit-margin-right="0"
   inkscape:pageshadow="2">
	</sodipodi:namedview>
<g
   id="layer1"
   transform="translate(-302.19806,-346.14737)"
   inkscape:label="Capa 1"
   inkscape:groupmode="layer">
	<g
   transform="matrix(1 0 0 1 314.9974 394.8764)"
   style="font-size:72px;font-family:VinerHandITC"
   id="text5"><path
     d="m 21.65625,-46.300781 0.527344,0 c 0.609352,0.328171 1.08982,0.492233 1.441406,0.492187 l 1.652344,-0.5625 0.28125,1.160157 -0.773438,0.914062 0.140625,1.617188 -0.808594,0.5625 c -0.02346,0.07035 -0.07034,0.175823 -0.140625,0.316406 -0.07034,0.140666 -0.117211,0.246135 -0.140625,0.316406 -2.3e-5,0.632853 -0.339867,1.183634 -1.019531,1.652344 -0.445335,0.117227 -0.808616,0.796914 -1.089844,2.039062 l 0.175782,0 -0.386719,1.511719 c -0.07033,3.6e-5 -0.187521,0.304723 -0.351563,0.914063 l 0.351563,0.386718 -1.371094,0.5625 0,0.5625 -0.5625,-0.210937 c -0.164082,0.492221 -0.480488,0.808627 -0.949219,0.949219 -0.117206,0.914094 -0.416033,1.570344 -0.896484,1.96875 -0.480486,0.398468 -0.832048,0.744171 -1.054687,1.037109 -0.222673,0.292998 -0.404314,0.638701 -0.544922,1.037109 l -0.457031,1.265625 -1.722657,3.691407 0,1.230468 -0.703125,0.703125 0.07031,0.667969 -0.210938,0 c -1.3e-5,0.0469 -0.222669,0.421896 -0.667968,1.125 l 0,0.949219 -0.632813,0.808594 0.28125,1.054687 c -0.234387,0.562517 -0.351574,1.195329 -0.351562,1.898437 l 0.140625,1.265625 -0.28125,2.53125 -0.667969,4.4648443 0.667969,1.0898437 -1.160157,4.1835937 0.421875,3.3046875 0,0.070312 C 10.86327,1.5117172 10.617177,1.7636701 10.125,1.9863281 9.6328029,2.2089822 9.3515531,2.3203102 9.28125,2.3203125 L 6.9960937,1.7929687 C 6.714837,2.1210916 6.3984311,2.3203102 6.046875,2.390625 L 5.8359375,3.234375 4.9570312,2.8125 C 4.4414018,3.2109343 3.9374961,3.7382775 3.4453125,4.3945312 L 1.7226562,2.3203125 2.390625,1.3710937 C 2.0859354,0.87890537 1.9335918,0.53906196 1.9335937,0.3515625 1.9335918,0.18749981 2.1562478,-0.16406234 2.6015625,-0.703125 3.0937469,-1.0546864 3.492184,-1.4179673 3.796875,-1.7929687 4.1015584,-2.1679666 4.253902,-2.3906226 4.2539062,-2.4609375 l 0,-0.2109375 0.28125,-0.4921875 C 4.3476519,-3.5624964 4.253902,-4.0195272 4.2539062,-4.5351562 4.253902,-5.238276 4.4648393,-5.9062441 4.8867187,-6.5390625 l 0,-2.0390625 0.2109375,0 0.8085938,-3.164063 0,-0.492187 0.3515625,-0.351563 1.3710937,-4.253906 0.140625,0 0.2109375,-1.863281 1.3710938,-3.691406 0.2109375,-0.28125 2.109375,-5.414063 c 0.8203,-0.867158 1.230456,-1.675751 1.230469,-2.425781 l 0.351562,-0.527344 0,-0.703125 1.511719,-4.324218 c -0.445327,-0.187464 -0.87892,-0.281214 -1.300781,-0.28125 l -0.808594,0.07031 c -0.04689,3.6e-5 -0.21095,-0.04684 -0.492187,-0.140625 l -0.492188,0.984375 -0.808594,0 -0.492187,1.300781 -0.210938,0 -0.738281,0.878907 -0.2109375,-0.140625 -0.5625,0.5625 -1.0195313,-0.140625 -1.7226562,0.808593 c -0.7734426,-0.187467 -1.160161,-0.667936 -1.1601563,-1.441406 -4.7e-6,-0.421841 0.2226513,-0.89645 0.6679688,-1.423828 0.4453066,-0.527308 0.7968688,-0.873011 1.0546875,-1.037109 l 2.0390625,-1.300782 0.421875,-0.632812 2.0742185,-0.878906 1.019532,-0.703125 0.351562,0.07031 0.140625,-0.386719 0.878906,0 c 0.374986,4e-5 0.90233,-0.328085 1.582032,-0.984375 0.515609,-0.656208 0.996077,-1.113239 1.441406,-1.371093 0.49217,4.2e-5 0.785139,-0.316364 0.878906,-0.949219 l 0.210937,0 c 0.11717,-0.281207 0.421858,-0.492144 0.914063,-0.632813 l 0,-0.351562 0.773437,-0.28125 c 0.164044,-0.07027 0.351543,-0.222612 0.5625,-0.457031 l 0.84375,-0.949219 0.140625,0 c 0.328104,4.6e-5 0.632792,-0.140579 0.914063,-0.421875 z"
     style="font-style:normal;font-variant:normal;font-weight:normal;font-stretch:normal;font-family:Viner Hand ITC;-inkscape-font-specification:Viner Hand ITC"
     id="path2989" /></g>
</g>
</svg>