<?xml version="1.0" encoding="UTF-8" standalone="no"?>
<!-- Created with Inkscape (http://www.inkscape.org/) -->

<svg
   xmlns:dc="http://purl.org/dc/elements/1.1/"
   xmlns:cc="http://creativecommons.org/ns#"
   xmlns:rdf="http://www.w3.org/1999/02/22-rdf-syntax-ns#"
   xmlns:svg="http://www.w3.org/2000/svg"
   xmlns="http://www.w3.org/2000/svg"
   xmlns:sodipodi="http://sodipodi.sourceforge.net/DTD/sodipodi-0.dtd"
   xmlns:inkscape="http://www.inkscape.org/namespaces/inkscape"
   width="52.880001"
   height="52.880001"
   id="svg2"
   version="1.1"
   inkscape:version="0.48.5 r10040"
   sodipodi:docname="10.svg">
  <defs
     id="defs4" />
  <sodipodi:namedview
     id="base"
     pagecolor="#ffffff"
     bordercolor="#666666"
     borderopacity="1.0"
     inkscape:pageopacity="0.0"
     inkscape:pageshadow="2"
     inkscape:zoom="1.4"
     inkscape:cx="-95.41234"
     inkscape:cy="-19.049088"
     inkscape:document-units="px"
     inkscape:current-layer="layer1"
     showgrid="false"
     fit-margin-top="0"
     fit-margin-left="0"
     fit-margin-right="0"
     fit-margin-bottom="0"
     inkscape:window-width="1366"
     inkscape:window-height="705"
     inkscape:window-x="-8"
     inkscape:window-y="-8"
     inkscape:window-maximized="1" />
  <metadata
     id="metadata7">
    <rdf:RDF>
      <cc:Work
         rdf:about="">
        <dc:format>image/svg+xml</dc:format>
        <dc:type
           rdf:resource="http://purl.org/dc/dcmitype/StillImage" />
        <dc:title />
      </cc:Work>
    </rdf:RDF>
  </metadata>
  <g
     inkscape:label="Capa 1"
     inkscape:groupmode="layer"
     id="layer1"
     transform="translate(-302.19806,-346.14737)">
    <g
       style="font-size:64px;font-style:normal;font-variant:normal;font-weight:bold;font-stretch:normal;line-height:125%;letter-spacing:0px;word-spacing:0px;fill:#000000;fill-opacity:1;stroke:none;font-family:Oswald;-inkscape-font-specification:Oswald Bold"
       id="text2985">
      <path
         d="m 323.62244,353.72018 0.46875,0 c 0.54164,0.29171 0.96873,0.43755 1.28125,0.4375 l 1.46875,-0.5 0.25,1.03125 -0.6875,0.8125 0.125,1.4375 -0.71875,0.5 c -0.0209,0.0625 -0.0625,0.15629 -0.125,0.28125 -0.0625,0.12504 -0.10419,0.21879 -0.125,0.28125 -2e-5,0.56254 -0.30211,1.05212 -0.90625,1.46875 -0.39586,0.10421 -0.71877,0.70837 -0.96875,1.8125 l 0.15625,0 -0.34375,1.34375 c -0.0625,4e-5 -0.16669,0.27087 -0.3125,0.8125 l 0.3125,0.34375 -1.21875,0.5 0,0.5 -0.5,-0.1875 c -0.14585,0.43753 -0.4271,0.71878 -0.84375,0.84375 -0.10419,0.81253 -0.36981,1.39587 -0.79688,1.75 -0.4271,0.3542 -0.7396,0.66149 -0.9375,0.92188 -0.19793,0.26044 -0.35939,0.56773 -0.48437,0.92187 l -0.40625,1.125 -1.53125,3.28125 0,1.09375 -0.625,0.625 0.0625,0.59375 -0.1875,0 c -2e-5,0.0417 -0.19793,0.37502 -0.59375,1 l 0,0.84375 -0.5625,0.71875 0.25,0.9375 c -0.20835,0.50002 -0.31251,1.06252 -0.3125,1.6875 l 0.125,1.125 -0.25,2.25 -0.59375,3.96875 0.59375,0.96875 -1.03125,3.71875 0.375,2.9375 0,0.0625 c -10e-6,0.25 -0.21876,0.47396 -0.65625,0.67188 -0.43751,0.19791 -0.68751,0.29687 -0.75,0.29687 l -2.03125,-0.46875 c -0.25001,0.29167 -0.53126,0.46875 -0.84375,0.53125 l -0.1875,0.75 -0.78125,-0.375 c -0.45834,0.35417 -0.90626,0.82292 -1.34375,1.40625 l -1.53125,-1.84375 0.59375,-0.84375 c -0.27084,-0.4375 -0.40626,-0.73958 -0.40625,-0.90625 -10e-6,-0.14583 0.19791,-0.45833 0.59375,-0.9375 0.43749,-0.31249 0.79166,-0.63541 1.0625,-0.96875 0.27083,-0.33333 0.40624,-0.53124 0.40625,-0.59375 l 0,-0.1875 0.25,-0.4375 c -0.16667,-0.35416 -0.25001,-0.76041 -0.25,-1.21875 -10e-6,-0.62499 0.18749,-1.21874 0.5625,-1.78125 l 0,-1.8125 0.1875,0 0.71875,-2.8125 0,-0.4375 0.3125,-0.3125 1.21875,-3.78125 0.125,0 0.1875,-1.65625 1.21875,-3.28125 0.1875,-0.25 1.875,-4.8125 c 0.72915,-0.7708 1.09374,-1.48955 1.09375,-2.15625 l 0.3125,-0.46875 0,-0.625 1.34375,-3.84375 c -0.39585,-0.16663 -0.78127,-0.24996 -1.15625,-0.25 l -0.71875,0.0625 c -0.0417,4e-5 -0.18751,-0.0416 -0.4375,-0.125 l -0.4375,0.875 -0.71875,0 -0.4375,1.15625 -0.1875,0 -0.65625,0.78125 -0.1875,-0.125 -0.5,0.5 -0.90625,-0.125 -1.53125,0.71875 c -0.68751,-0.16663 -1.03126,-0.59372 -1.03125,-1.28125 -10e-6,-0.37497 0.19791,-0.79684 0.59375,-1.26562 0.39582,-0.46872 0.70832,-0.77601 0.9375,-0.92188 l 1.8125,-1.15625 0.375,-0.5625 1.84375,-0.78125 0.90625,-0.625 0.3125,0.0625 0.125,-0.34375 0.78125,0 c 0.33332,4e-5 0.80207,-0.29163 1.40625,-0.875 0.45832,-0.58329 0.8854,-0.98954 1.28125,-1.21875 0.43748,4e-5 0.6979,-0.28121 0.78125,-0.84375 l 0.1875,0 c 0.10415,-0.24996 0.37498,-0.43746 0.8125,-0.5625 l 0,-0.3125 0.6875,-0.25 c 0.14581,-0.0625 0.31248,-0.19787 0.5,-0.40625 l 0.75,-0.84375 0.125,0 c 0.29164,5e-5 0.56248,-0.12495 0.8125,-0.375 z"
         style="font-weight:normal;fill:#000000;font-family:Viner Hand ITC;-inkscape-font-specification:Viner Hand ITC"
         id="path2985" />
      <path
         d="m 343.87244,352.25143 0.96875,0.25 c 0.54164,0.54171 0.97393,1.05213 1.29687,1.53125 0.3229,0.47921 0.50519,1.20838 0.54688,2.1875 l 1.03125,1.40625 -0.125,0.84375 1.28125,1.78125 -0.125,0.71875 0.4375,0.875 -0.3125,1.15625 0.84375,0.71875 0.4375,1.59375 0,1.09375 0.96875,0.5 -0.34375,2 0.46875,0.4375 -0.125,1.28125 0.25,0.96875 -0.71875,1.125 0.28125,1.03125 -1.21875,1.34375 -0.0625,0.375 1.34375,1.28125 -1.5,0.71875 -0.625,1.09375 1.46875,0.5625 -1.78125,1.15625 0.25,0.375 -1.15625,1.75 -0.125,0.4375 -0.5625,0.3125 -0.46875,1.53125 -0.375,0.125 -0.5,0.96875 -0.5625,0.40625 c -0.14586,0.12501 -0.50002,0.54168 -1.0625,1.25 l 0.125,0.15625 -1.125,1.59375 -2.5,2.5 -3.28125,2.8125 -0.5625,0 -0.78125,0.75 c -0.41668,0.14584 -0.9271,0.42709 -1.53125,0.84375 l -0.75,-0.4375 -0.28125,0.125 -1.90625,-0.65625 c -0.70834,-0.5 -1.15626,-0.88541 -1.34375,-1.15625 l -0.59375,-0.125 -0.4375,-0.9375 -0.5625,0.1875 -0.1875,-0.78125 -0.96875,-0.375 0.375,-0.71875 0.3125,-0.1875 -0.125,-0.1875 0.1875,-0.4375 -0.6875,-1.28125 c -0.0833,-0.12499 -0.22917,-0.66666 -0.4375,-1.625 l -0.46875,0 0.125,-1.1875 -0.125,-0.96875 0.1875,-0.375 -0.1875,-0.0625 0.375,-2.5 -0.375,-1.625 0.375,-0.25 -0.125,-0.25 0.125,-1.53125 -0.25,-0.96875 0.59375,-0.96875 0,-1.40625 0.625,-2.625 -0.1875,0 0.4375,-0.9375 -0.3125,-0.40625 0.4375,-0.25 -0.125,-0.4375 1.34375,-4.03125 0.90625,-1.78125 0.3125,-0.28125 -0.125,-1.15625 0.53125,-0.375 0.5,-1.28125 0.125,0 0.1875,-0.59375 c 0.0417,-0.18746 0.23957,-0.45829 0.59375,-0.8125 l 0,-0.6875 0.5625,-0.125 0,-0.21875 1.78125,-1.90625 0.28125,-0.71875 0.75,-0.3125 0.125,-0.6875 c 0.70832,-0.62496 1.09373,-0.92704 1.15625,-0.90625 0.41665,-0.60412 0.9479,-1.05204 1.59375,-1.34375 l 2.25,-0.96875 1.59375,0 z m -4.34375,6.21875 -1.09375,0.6875 -0.96875,1.59375 -0.78125,0.8125 c -0.22918,0.2292 -0.60418,0.77087 -1.125,1.625 l -0.5625,1.46875 -0.84375,1.53125 -0.125,0.8125 c -0.0417,0.27087 -0.16668,0.56253 -0.375,0.875 l 0,1.28125 -0.84375,0.6875 -0.1875,0.90625 0,0.6875 -0.78125,0.78125 0,0.1875 c -0.50001,1.10419 -0.88543,2.00002 -1.15625,2.6875 l 0.21875,1.03125 -0.65625,1.40625 0.3125,0.1875 -0.3125,1.09375 0.3125,0.4375 -0.5,1.46875 -0.375,2.0625 0.875,0.4375 -1.21875,0.71875 0.21875,0.4375 0.4375,0 -0.125,1.46875 0,1.46875 c 0.29166,0.25001 0.56249,0.57293 0.8125,0.96875 l -0.125,0.5 c 0.27082,0.62501 0.48957,1.18751 0.65625,1.6875 0.45832,0.22918 0.94791,0.67709 1.46875,1.34375 l 1.34375,-0.34375 0.4375,0.71875 0.78125,-0.375 0.1875,-0.40625 0.625,-0.125 0.40625,-1.09375 0.125,0 0.3125,-0.5625 1.09375,0 c 0.49998,-0.62499 0.86457,-1.17707 1.09375,-1.65625 l 0.5,-0.1875 0.25,-0.71875 1.03125,-1.96875 0.90625,-0.46875 0.125,-0.6875 1.03125,-0.46875 -0.40625,-0.375 0,-0.90625 c 0.43748,-0.62498 0.65623,-1.11457 0.65625,-1.46875 l 0,-1.65625 0.5,-0.96875 -0.375,-1.0625 0.1875,-0.78125 0.25,-0.1875 -0.3125,-0.375 0,-1.03125 -0.125,-0.96875 0.125,-0.25 -0.59375,-0.71875 0.21875,-0.6875 0.625,-0.3125 -0.0625,0.125 -0.125,0 -0.3125,-1.8125 c -2e-5,-0.4583 0.24998,-1.09372 0.75,-1.90625 l -0.5,-1.03125 0.3125,-1.09375 -0.6875,-1.65625 0.125,0 -0.40625,-0.4375 0.15625,-0.46875 c -0.50002,-0.8958 -0.78127,-1.59371 -0.84375,-2.09375 l -0.5,-0.4375 0,-1.21875 -0.21875,-0.46875 z"
         style="font-weight:normal;fill:#000000;font-family:Viner Hand ITC;-inkscape-font-specification:Viner Hand ITC"
         id="path2987" />
    </g>
  </g>
</svg>
