<?xml version="1.0" encoding="UTF-8" standalone="no"?>
<!-- Created with Inkscape (http://www.inkscape.org/) -->

<svg
   xmlns:dc="http://purl.org/dc/elements/1.1/"
   xmlns:cc="http://creativecommons.org/ns#"
   xmlns:rdf="http://www.w3.org/1999/02/22-rdf-syntax-ns#"
   xmlns:svg="http://www.w3.org/2000/svg"
   xmlns="http://www.w3.org/2000/svg"
   xmlns:sodipodi="http://sodipodi.sourceforge.net/DTD/sodipodi-0.dtd"
   xmlns:inkscape="http://www.inkscape.org/namespaces/inkscape"
   width="52.880001"
   height="52.880001"
   id="svg2"
   version="1.1"
   inkscape:version="0.48.5 r10040"
   sodipodi:docname="2.svg">
  <defs
     id="defs4" />
  <sodipodi:namedview
     id="base"
     pagecolor="#ffffff"
     bordercolor="#666666"
     borderopacity="1.0"
     inkscape:pageopacity="0.0"
     inkscape:pageshadow="2"
     inkscape:zoom="1.4"
     inkscape:cx="47.801946"
     inkscape:cy="-19.049088"
     inkscape:document-units="px"
     inkscape:current-layer="layer1"
     showgrid="false"
     fit-margin-top="0"
     fit-margin-left="0"
     fit-margin-right="0"
     fit-margin-bottom="0"
     inkscape:window-width="1366"
     inkscape:window-height="705"
     inkscape:window-x="-8"
     inkscape:window-y="-8"
     inkscape:window-maximized="1" />
  <metadata
     id="metadata7">
    <rdf:RDF>
      <cc:Work
         rdf:about="">
        <dc:format>image/svg+xml</dc:format>
        <dc:type
           rdf:resource="http://purl.org/dc/dcmitype/StillImage" />
        <dc:title />
      </cc:Work>
    </rdf:RDF>
  </metadata>
  <g
     inkscape:label="Capa 1"
     inkscape:groupmode="layer"
     id="layer1"
     transform="translate(-302.19806,-346.14737)">
    <g
       style="font-size:40px;font-style:normal;font-variant:normal;font-weight:bold;font-stretch:normal;line-height:125%;letter-spacing:0px;word-spacing:0px;fill:#000000;fill-opacity:1;stroke:none;font-family:Oswald;-inkscape-font-specification:Oswald Bold"
       id="text2985">
      <path
         d="m 348.92322,347.20456 c 0.91402,0.2813 1.52339,0.85551 1.82812,1.72266 l 0.21094,0 c 0.58589,0.67973 0.99605,1.23051 1.23047,1.65234 -0.11723,0.18754 -0.45708,0.66801 -1.01953,1.44141 -0.56255,0.77348 -0.90239,1.13676 -1.01953,1.08984 l -0.21094,0.59766 -0.49219,0 c -0.21098,0.98441 -0.69145,1.69925 -1.4414,2.14453 -0.58598,1.1016 -1.31254,1.83988 -2.17969,2.21484 l 0,0.17578 -0.14063,0.0703 0.14063,0.35157 -0.21094,0.84375 c -0.49222,0.21097 -0.79691,0.59769 -0.91406,1.16015 l -0.14063,-0.14062 c -0.49222,1.50003 -1.4766,2.25003 -2.95312,2.25 l -1.51172,0.84375 -1.75781,1.86328 -0.91407,0 c -0.14065,0.0938 -0.35745,0.36917 -0.65039,0.82617 -0.29299,0.45706 -0.69729,0.90823 -1.21289,1.35352 l -0.38672,-0.14063 -0.84375,1.44141 -0.59765,-0.14063 c -0.28128,0.56253 -0.58597,0.93753 -0.91406,1.125 l 0,0.31641 c -0.93753,0.11721 -1.59378,0.38674 -1.96875,0.80859 -0.37503,0.4219 -0.56253,0.7969 -0.5625,1.125 l 0.0703,0.21094 -0.77344,0.14063 c -0.16408,0.46877 -0.72658,0.90236 -1.6875,1.30078 l -0.35156,1.01953 -0.28125,-0.0703 c -0.32815,2e-5 -0.63869,0.36916 -0.93164,1.10742 -0.29299,0.7383 -0.48635,1.13087 -0.58008,1.17773 l -1.93359,1.16016 -0.8086,1.23047 c -0.72658,0.25782 -1.25392,0.58595 -1.58203,0.98437 l 0.14063,0 -2.07422,2.53125 6.11718,1.44141 c 0.72655,0.0703 1.3242,0.25782 1.79297,0.5625 0.28123,0.63282 0.62108,0.94923 1.01953,0.94922 l 0.21094,0 1.16016,1.01953 0.84375,-0.28125 1.72265,0.63281 0.0703,0.35156 1.30078,0.35157 0.49219,0.73828 c 0.16403,0.23438 0.457,0.49219 0.8789,0.77343 l 0.8086,0.31641 c 0.32809,0.16407 0.97262,0.28126 1.93359,0.35156 l -0.0703,0.28125 c 0.16403,0.16407 0.28122,0.35157 0.35156,0.5625 l 2.95312,0.73828 1.3711,-0.14062 1.30078,-1.93359 -0.0703,-1.82813 c -4e-5,-0.14062 0.16402,-0.43945 0.49218,-0.89648 0.32809,-0.45703 0.63278,-0.79687 0.91407,-1.01954 0.28121,-0.22264 0.60933,-0.39256 0.98437,-0.50976 l 4.00781,-1.37109 c 0.60934,0.0703 1.11324,0.37501 1.51172,0.91406 l 0.35157,0.3164 c 0.11714,0.0938 0.6562,0.3047 1.61718,0.63282 0.32808,0.75001 0.83199,1.57032 1.51172,2.46093 l -0.80859,3.09375 -1.58203,0.14063 -0.63282,0.77344 -0.45703,0 0,0.3164 -0.84375,-0.24609 c -0.32816,1.10156 -1.03129,1.71094 -2.10937,1.82812 l 0,0.14063 c -1.73442,0.70312 -3.43363,1.05469 -5.09766,1.05469 -0.46878,0 -1.06644,-0.0469 -1.79297,-0.14063 l -0.45703,-0.35156 -0.21094,0.28125 -1.51171,0.21094 -1.51172,-0.42188 -1.08985,0.8086 -1.05468,-0.14063 -1.16016,0.21094 0,-0.8086 c -0.86721,-0.0703 -1.55862,-0.30468 -2.07422,-0.70312 l -0.59766,0.35156 -1.16015,-0.49219 c -0.58596,-0.44531 -1.00784,-0.64453 -1.26563,-0.59765 l -2.17968,0.35156 c -0.30471,-0.0469 -0.54495,-0.14062 -0.72071,-0.28125 -0.1758,-0.14062 -0.36916,-0.66797 -0.58008,-1.58203 l -0.63281,0.0703 -1.08984,-0.35156 -0.14063,0.49219 c -0.98439,-0.375 -1.69923,-0.5625 -2.14453,-0.5625 l -0.45703,0 c -0.25783,0 -0.56251,-0.1875 -0.91406,-0.5625 -0.32814,-0.0234 -1.19533,-0.31641 -2.60156,-0.87891 l -1.23047,0.35156 -1.79297,0 c -0.16407,0.0469 -0.29884,0.10548 -0.4043,0.17578 -0.10547,0.0703 -0.56836,0.56251 -1.38867,1.47657 l -0.52734,0 -0.91407,0.73828 -2.17968,0.42187 c -1.07813,0.65625 -1.81641,1.1836 -2.21485,1.58203 l 0.21094,0.35157 c -0.46875,0.46875 -0.97266,0.73828 -1.51172,0.80859 l 0,0.35156 c -0.9375,0.86719 -1.65234,1.30078 -2.14453,1.30078 -0.84375,0 -1.37109,-0.51562 -1.58203,-1.54687 l -0.31641,-1.54688 c 1e-5,-0.51562 0.22266,-0.99609 0.66797,-1.4414 0.44532,-0.44531 0.79688,-0.67969 1.05469,-0.70313 l 0.73828,-1.16015 0.35156,0.28125 0.35156,-0.28125 -0.42187,-0.28125 c 0.86719,-0.72656 1.30078,-1.35937 1.30078,-1.89844 l 0,-0.14063 3.51563,-2.95312 2.39062,-0.98438 2.53125,-1.75781 1.65234,-1.72265 c 0.72656,-0.0469 1.23046,-0.71483 1.51172,-2.00391 l 0.28125,0.28125 c 0.49218,-0.30467 0.92577,-0.71483 1.30078,-1.23047 l -0.14062,-0.70312 0.84375,-0.59766 -0.0703,-0.14063 c 1.03123,-0.86716 1.62889,-1.28904 1.79297,-1.26562 l 0.73828,-1.08984 1.37109,-0.66797 1.30078,-1.51172 2.21485,-1.9336 0.80859,-0.94921 0.63281,0 0.5625,-0.70313 1.96875,-1.58203 0.38672,-0.73828 c 0.11716,-0.23435 0.46873,-0.6445 1.05469,-1.23047 0.58591,-0.58591 1.11911,-1.06638 1.59961,-1.44141 0.48044,-0.37497 0.75583,-0.60934 0.82617,-0.70312 l 3.62109,-3.58594 2.60157,-1.86328 1.40625,-3.19922 -0.21094,-0.63281 -1.44141,0.14062 -1.125,0.87891 -1.89844,0.14062 -0.49218,0.5625 c -1.31253,0.51567 -2.10941,0.87895 -2.39063,1.08985 l -0.14062,-0.14063 c -0.70316,0.25785 -1.07815,0.92582 -1.125,2.00391 l -1.01953,-0.21094 -0.28125,0.28125 -0.63282,0.0703 c -0.16408,4e-5 -0.63283,0.26957 -1.40625,0.8086 l -0.77343,-0.21094 -0.8086,0.21094 c -0.25783,0.86722 -0.42189,1.32425 -0.49219,1.37109 l -1.08984,-0.38672 c -0.49221,0.9141 -1.45314,1.73441 -2.88281,2.46094 -0.82033,-0.37497 -1.44142,-0.97262 -1.86328,-1.79297 0.53904,-1.00778 0.9492,-1.65231 1.23047,-1.93359 l 2.14453,-2.32031 c 0.74998,-0.0468 1.25974,-0.32223 1.52929,-0.82618 0.26951,-0.50386 0.53319,-0.91988 0.79102,-1.24804 l 0.84375,0 1.51172,-1.3711 0.3164,0 c 0.72654,4e-5 1.20701,-0.26949 1.44141,-0.80859 l 1.51172,-0.49219 c 1.03122,-0.67964 1.60544,-1.04292 1.72266,-1.08984 l 1.4414,-0.14063 c 0.5156,-0.25777 0.86716,-0.42769 1.05469,-0.50976 0.18747,-0.082 0.62106,-0.12301 1.30078,-0.12305 l 0.38672,0.0703 c 0.93747,-0.51558 1.7695,-0.78511 2.49609,-0.80859 0.65622,-0.72652 1.38278,-1.0898 2.17969,-1.08984 l 0.21094,0 0.63281,-0.49219 1.23047,-0.14063 0.73828,-0.8789 0.35156,0.3164 z"
         style="font-size:72px;font-weight:normal;font-family:Viner Hand ITC;-inkscape-font-specification:Viner Hand ITC"
         id="path2985" />
    </g>
  </g>
</svg>
