<?xml version="1.0" encoding="UTF-8" standalone="no"?>
<!-- Created with Inkscape (http://www.inkscape.org/) -->

<svg
   xmlns:dc="http://purl.org/dc/elements/1.1/"
   xmlns:cc="http://creativecommons.org/ns#"
   xmlns:rdf="http://www.w3.org/1999/02/22-rdf-syntax-ns#"
   xmlns:svg="http://www.w3.org/2000/svg"
   xmlns="http://www.w3.org/2000/svg"
   xmlns:sodipodi="http://sodipodi.sourceforge.net/DTD/sodipodi-0.dtd"
   xmlns:inkscape="http://www.inkscape.org/namespaces/inkscape"
   width="52.880001"
   height="52.880001"
   id="svg2"
   version="1.1"
   inkscape:version="0.48.5 r10040"
   sodipodi:docname="3.svg">
  <defs
     id="defs4" />
  <sodipodi:namedview
     id="base"
     pagecolor="#ffffff"
     bordercolor="#666666"
     borderopacity="1.0"
     inkscape:pageopacity="0.0"
     inkscape:pageshadow="2"
     inkscape:zoom="1.4"
     inkscape:cx="47.801946"
     inkscape:cy="-19.049088"
     inkscape:document-units="px"
     inkscape:current-layer="layer1"
     showgrid="false"
     fit-margin-top="0"
     fit-margin-left="0"
     fit-margin-right="0"
     fit-margin-bottom="0"
     inkscape:window-width="1366"
     inkscape:window-height="705"
     inkscape:window-x="-8"
     inkscape:window-y="-8"
     inkscape:window-maximized="1" />
  <metadata
     id="metadata7">
    <rdf:RDF>
      <cc:Work
         rdf:about="">
        <dc:format>image/svg+xml</dc:format>
        <dc:type
           rdf:resource="http://purl.org/dc/dcmitype/StillImage" />
        <dc:title />
      </cc:Work>
    </rdf:RDF>
  </metadata>
  <g
     inkscape:label="Capa 1"
     inkscape:groupmode="layer"
     id="layer1"
     transform="translate(-302.19806,-346.14737)">
    <g
       style="font-size:40px;font-style:normal;font-variant:normal;font-weight:bold;font-stretch:normal;line-height:125%;letter-spacing:0px;word-spacing:0px;fill:#000000;fill-opacity:1;stroke:none;font-family:Oswald;-inkscape-font-specification:Oswald Bold"
       id="text2985">
      <path
         d="m 347.69275,352.478 -2.35547,1.125 -0.70312,0.5625 c -0.21097,0.1641 -0.63285,0.31644 -1.26563,0.45703 -0.32815,0.37504 -0.8555,0.80863 -1.58203,1.30078 l -0.28125,0.73828 -1.37109,0.5625 -0.98438,0.5625 -1.58203,0.14063 -1.16016,0.80859 -1.01953,0.49219 c -0.9844,1.19534 -1.87502,1.99222 -2.67187,2.39062 -0.82034,0.65628 -1.23049,1.08988 -1.23047,1.30078 -2e-5,0.23441 0.0586,0.42191 0.17578,0.5625 l 3.58594,-0.49218 c 0.84372,3e-5 1.99216,0.41018 3.44531,1.23046 l 1.51172,-0.66796 0.38672,0.28125 1.33593,-0.21094 c 0.8906,0.65628 1.73435,1.20706 2.53125,1.65234 0.42185,1.00784 1.04294,2.01565 1.86329,3.02344 l -0.14063,1.30078 c -0.37503,0.56253 -0.60941,0.94924 -0.70312,1.16016 -0.0938,0.21096 -0.31644,1.10158 -0.66797,2.67187 -0.63285,0.46877 -1.20707,0.99612 -1.72266,1.58203 l -2.95312,3.30469 -1.3711,0.49219 -0.91406,1.4414 c -0.96096,0.30471 -1.66995,0.48635 -2.12695,0.54493 -0.45706,0.0586 -0.80276,0.21681 -1.03711,0.47461 -0.2344,0.53907 -0.4219,0.90821 -0.5625,1.10742 -0.14065,0.19923 -0.36331,0.42774 -0.66797,0.68554 -1.33596,0.46877 -2.56643,1.1133 -3.69141,1.9336 l -0.5625,-0.21094 -0.0703,0.21094 -1.30078,0.98437 c -0.14064,0.1172 -0.57424,0.26954 -1.30078,0.45703 l -0.38672,0.5625 c -0.1172,0.16407 -0.6797,0.52736 -1.6875,1.08985 -0.0469,0.21094 -0.36329,0.38672 -0.94922,0.52734 l -3.16406,1.08985 -0.70313,1.05468 -1.75781,0.38672 -0.14063,0.14063 0.0703,0.28125 1.23047,-0.35157 0.21093,0 c 1.26562,10e-6 2.20312,0.57423 2.8125,1.72266 l -2.07422,1.37109 c -0.65625,0.65625 -1.08985,1.41797 -1.30078,2.28516 l -1.16015,0 -0.84375,1.08984 c -0.98438,0.0469 -1.57032,0.48047 -1.75782,1.30079 -0.67968,0.60937 -1.23047,0.93749 -1.65234,0.98437 -0.63281,0.58593 -1.32422,0.8789 -2.07422,0.87891 -1.42968,-1e-5 -2.14453,-1.51173 -2.14453,-4.53516 l 0.77344,-1.86328 c 0.86719,0 1.30078,-0.38672 1.30078,-1.16016 l 0.77344,-0.21093 0.0703,-0.14063 -0.28125,-0.52734 0.73828,-0.28125 0,-0.49219 0.63281,0 2.17969,-1.86328 1.26563,-0.8086 0.70312,-0.70312 c 0.21093,-0.21093 0.77343,-0.55077 1.6875,-1.01953 l 0.21094,0.14062 0.52734,-0.63281 0.98438,-0.38672 8.4375,-4.67578 1.58203,-0.98437 1.30078,-0.45704 5.97656,-5.09765 0.5625,-2.32031 c 0.0469,-0.25779 0.16404,-0.60936 0.35156,-1.05469 -0.28127,-0.86717 -1.13674,-1.66404 -2.5664,-2.39063 -0.86721,-0.11716 -1.39456,-0.21091 -1.58203,-0.28125 l -1.44141,0.70313 -0.87891,-0.63281 -1.16015,0.28125 -0.14063,-0.28125 -0.21093,0.0703 0,0.35156 -2.07422,0.87891 -0.59766,-0.38672 -0.91406,0.59765 -1.08985,0 c -1.40626,0.49222 -3.25782,1.47659 -5.55468,2.95313 l -1.79297,-1.79297 0.42187,-1.30078 c 0.9375,-0.49216 1.46484,-1.21873 1.58203,-2.17969 0.21093,-0.7031 0.66796,-1.13669 1.3711,-1.30078 l 0.14062,-0.77344 0.45703,0 c 0.11718,-0.23434 0.51562,-0.6445 1.19532,-1.23047 l -0.21094,-0.77343 c 0.35155,-0.1406 1.0078,-0.59763 1.96875,-1.3711 l 1.125,-1.4414 c 1.05467,-0.82028 2.14451,-1.73434 3.26953,-2.74219 l 1.86328,-1.72266 c 0.14061,-0.30465 0.21092,-0.55074 0.21094,-0.73828 -2.36721,-0.18746 -3.85549,-0.28121 -4.46484,-0.28125 l -1.79297,0.42188 c -0.58595,0.14066 -1.084,0.24027 -1.49414,0.29882 -0.41017,0.0586 -0.94923,0.21098 -1.61719,0.45704 -0.66798,0.24613 -1.2129,0.47464 -1.63477,0.68554 -0.49219,-0.2109 -0.85547,-0.46871 -1.08984,-0.77343 -0.23438,-0.30465 -0.55079,-0.69137 -0.94922,-1.16016 l 0,-0.5625 c -1e-5,-0.23434 0.2871,-0.61519 0.86133,-1.14258 0.57421,-0.5273 1.0371,-0.99019 1.38867,-1.38867 l 0.63281,-0.0703 0.73828,-1.08985 0.77344,-0.38672 c 0.23437,-0.11714 0.62108,-0.4687 1.16016,-1.05468 l 0.21094,0 1.16015,-0.63282 1.9336,0 0.42187,-0.14062 c 0.4453,0.0938 0.9492,0.14067 1.51172,0.14062 0.63279,5e-5 1.22459,-0.0878 1.77539,-0.26367 0.55076,-0.17573 0.87303,-0.26362 0.9668,-0.26367 0.44529,5e-5 0.90232,0.12895 1.37109,0.38672 1.14842,0.37504 1.92185,0.56254 2.32031,0.5625 l 0.70313,-0.14063 0.5625,0.10547 c 0.42185,0.0704 1.00778,0.10552 1.75781,0.10547 l 0.35156,-0.14062 c 0.79685,0.28129 1.37107,0.42192 1.72266,0.42187 0.49216,5e-5 1.11325,-0.23433 1.86328,-0.70312 1.12497,-0.49214 2.13278,-0.73824 3.02344,-0.73828 1.21871,4e-5 1.82809,0.65629 1.82812,1.96875 -3e-5,0.89066 -0.17581,1.41801 -0.52734,1.58203 z"
         style="font-size:72px;font-weight:normal;font-family:Viner Hand ITC;-inkscape-font-specification:Viner Hand ITC"
         id="path2985" />
    </g>
  </g>
</svg>
