<?xml version="1.0" encoding="UTF-8" standalone="no"?>
<!-- Created with Inkscape (http://www.inkscape.org/) -->

<svg
   xmlns:dc="http://purl.org/dc/elements/1.1/"
   xmlns:cc="http://creativecommons.org/ns#"
   xmlns:rdf="http://www.w3.org/1999/02/22-rdf-syntax-ns#"
   xmlns:svg="http://www.w3.org/2000/svg"
   xmlns="http://www.w3.org/2000/svg"
   xmlns:sodipodi="http://sodipodi.sourceforge.net/DTD/sodipodi-0.dtd"
   xmlns:inkscape="http://www.inkscape.org/namespaces/inkscape"
   width="52.880001"
   height="52.880001"
   id="svg2"
   version="1.1"
   inkscape:version="0.48.5 r10040"
   sodipodi:docname="4.svg">
  <defs
     id="defs4" />
  <sodipodi:namedview
     id="base"
     pagecolor="#ffffff"
     bordercolor="#666666"
     borderopacity="1.0"
     inkscape:pageopacity="0.0"
     inkscape:pageshadow="2"
     inkscape:zoom="1.4"
     inkscape:cx="47.801946"
     inkscape:cy="-19.049088"
     inkscape:document-units="px"
     inkscape:current-layer="layer1"
     showgrid="false"
     fit-margin-top="0"
     fit-margin-left="0"
     fit-margin-right="0"
     fit-margin-bottom="0"
     inkscape:window-width="1366"
     inkscape:window-height="705"
     inkscape:window-x="-8"
     inkscape:window-y="-8"
     inkscape:window-maximized="1" />
  <metadata
     id="metadata7">
    <rdf:RDF>
      <cc:Work
         rdf:about="">
        <dc:format>image/svg+xml</dc:format>
        <dc:type
           rdf:resource="http://purl.org/dc/dcmitype/StillImage" />
        <dc:title />
      </cc:Work>
    </rdf:RDF>
  </metadata>
  <g
     inkscape:label="Capa 1"
     inkscape:groupmode="layer"
     id="layer1"
     transform="translate(-302.19806,-346.14737)">
    <g
       style="font-size:40px;font-style:normal;font-variant:normal;font-weight:bold;font-stretch:normal;line-height:125%;letter-spacing:0px;word-spacing:0px;fill:#000000;fill-opacity:1;stroke:none;font-family:Oswald;-inkscape-font-specification:Oswald Bold"
       id="text2985">
      <path
         d="m 339.74744,350.08737 c 0.56246,0.11723 0.91988,0.29887 1.07226,0.54492 0.15231,0.24614 0.22848,0.70903 0.22852,1.38868 l 0,1.01953 c -0.3516,0.14066 -0.56254,0.36332 -0.63281,0.66797 0.0468,0.14066 0.14059,0.3516 0.28125,0.63281 l -1.58204,2.60156 0,0.35156 c -3e-5,0.9141 -0.293,1.55863 -0.8789,1.9336 -0.46878,1.07816 -0.84378,2.83597 -1.125,5.27343 -0.86722,0.56253 -1.30081,1.25394 -1.30078,2.07422 l 0,1.30078 -0.66797,1.65235 c -0.0938,1.19533 -0.21097,2.1094 -0.35156,2.74219 -0.14066,0.63283 -0.39847,1.52345 -0.77344,2.67187 l 0.21094,0.77344 -0.21094,0 c -3e-5,0.37502 0.21091,0.71486 0.63281,1.01953 l 0,-0.14063 0.49219,0 0.38672,-0.35156 c 0.18747,0.0938 0.35153,0.21096 0.49218,0.35156 l 1.08985,0 c 0.5859,0.32815 1.08981,0.49221 1.51172,0.49219 l 1.30078,-0.21094 1.65234,0 c 0.3984,2e-5 0.82028,-0.0469 1.26563,-0.14062 0.44527,-0.0937 0.7148,-0.14061 0.80859,-0.14063 0.42184,-0.37498 0.63277,-0.92576 0.63281,-1.65234 l -0.42187,0.14063 0.21094,-0.52735 0.3164,0.10547 0,-0.38672 0.42188,-1.125 0.84375,-0.38672 0,-0.14062 c 0.51558,-0.42185 1.12496,-0.63279 1.82812,-0.63281 l 0.14063,-0.66797 c 0.18745,-0.0937 0.37495,-0.1406 0.5625,-0.14063 0.23433,3e-5 0.59761,0.0938 1.08984,0.28125 l 0,-0.28125 c 0.23433,-0.46872 0.44527,-0.79685 0.63281,-0.98437 0.56246,0.11721 0.99605,0.53908 1.30078,1.26562 -0.23442,0.96096 -0.37504,1.52932 -0.42187,1.70508 -0.0469,0.1758 -0.0996,0.46291 -0.1582,0.86133 -0.0586,0.39846 -0.16997,0.72658 -0.33399,0.98437 l -0.59765,1.05469 -2.46094,1.23047 -1.58203,1.58203 -0.63282,0 -0.28125,0.52734 -0.21093,-0.21093 -0.45703,0.49218 0,0.49219 -1.125,0.28125 -0.66797,-0.77344 -1.16016,0.77344 -0.91406,-0.28125 -0.87891,0.66797 -0.63281,-0.24609 c -0.3516,0.44532 -0.73831,0.66798 -1.16016,0.66797 l -0.80859,-0.14063 -0.70313,0.35156 -1.01953,-0.63281 -1.30078,0.63281 -0.14062,0.8086 -0.21094,-0.14063 0,0.28125 -0.28125,0 -1.51172,5.90625 1.01953,2.28516 c -0.72659,0.9375 -1.17776,1.5 -1.35351,1.6875 -0.17581,0.1875 -0.38089,0.36914 -0.61524,0.54492 -0.2344,0.17578 -0.57424,0.50391 -1.01953,0.98437 -0.44534,0.48047 -0.89065,0.92579 -1.33594,1.33594 -0.44533,0.41016 -0.96682,0.84961 -1.56445,1.31836 -0.59768,0.46875 -1.15432,0.70312 -1.66992,0.70313 -0.53908,-1e-5 -0.85549,-0.12891 -0.94922,-0.38672 -0.32814,-0.14063 -0.60353,-0.35743 -0.82617,-0.65039 -0.22268,-0.29297 -0.334,-0.53321 -0.33399,-0.72071 -1e-5,-0.0469 0.0234,-0.0703 0.0703,-0.0703 l 0.0703,0 1.16015,-1.37109 0.49219,-1.26563 c 0.28123,-0.28124 0.45701,-0.55078 0.52735,-0.80859 l 0.14062,0 1.16016,-3.58594 c 0.25779,-0.58593 0.5156,-1.45312 0.77343,-2.60156 l 0.35157,-1.65234 0.66797,-2.32032 c -3e-5,-0.77342 -0.89065,-1.16014 -2.67188,-1.16015 l -0.63281,0 0,-0.28125 -1.08985,0.28125 0,0.52734 -2.95312,0 -0.49219,-0.52734 -0.38672,0.52734 -1.125,-0.52734 -1.75781,0.24609 -1.65234,-0.66797 0,0.28125 -0.63282,0 0,0.38672 c -0.49219,-0.30467 -1.01954,-0.45702 -1.58203,-0.45703 -0.39844,10e-6 -0.8086,0.0703 -1.23047,0.21094 l 0,0.24609 -1.79296,-0.66797 c -0.39845,2e-5 -0.68556,0.0469 -0.86133,0.14063 -0.17579,0.0938 -0.66211,0.48048 -1.45899,1.16015 -0.77344,-0.28123 -1.41797,-0.78514 -1.93359,-1.51172 l 0,-0.14062 c 0,-0.18749 0.16406,-0.35155 0.49219,-0.49219 l -0.14063,-0.66797 0.66797,-0.98437 0.63281,-0.31641 0,-0.63281 c 0.21094,-0.44529 0.48047,-0.66795 0.8086,-0.66797 l 0.35156,-0.14062 c 0.0937,-0.0469 0.57421,-0.55077 1.44141,-1.51172 0.16405,-0.0469 0.5039,-0.18162 1.01953,-0.4043 0.51562,-0.22264 1.10155,-0.39842 1.75781,-0.52734 0.65624,-0.12889 1.10155,-0.29881 1.33594,-0.50977 l 1.79297,-1.51172 c -1e-5,-0.3281 0.20506,-0.57419 0.61523,-0.73828 0.41014,-0.16404 0.75585,-0.33982 1.03711,-0.52734 l 0.28125,-0.8086 0.14062,0.14063 c 0.16405,-0.37498 0.28124,-0.58591 0.35157,-0.63281 l 0,-0.14063 1.96875,-1.08984 2.14453,-2.25 c 0.21092,-0.56247 0.59764,-0.86716 1.16015,-0.91407 l 0.42188,-0.35156 0,-0.3164 c -2e-5,-0.16404 0.19334,-0.2695 0.58008,-0.31641 0.3867,-0.0468 0.69724,-0.10544 0.93164,-0.17578 0.28123,-0.91403 0.7617,-1.582 1.4414,-2.00391 l 0,0.21094 0.21094,-0.21094 c 0.11717,-0.37496 0.33982,-0.69137 0.66797,-0.94922 l 2.56641,-2.14453 c 0.96091,-0.79684 1.44138,-1.49996 1.4414,-2.10937 l 0,-0.14063 0.2461,0 -0.2461,-0.21094 0.52735,-0.49218 0.10547,-0.31641 c 0.32809,-0.86715 0.79684,-1.39449 1.40625,-1.58203 l 1.30078,-0.35156 0.63281,-1.01953 c 0.91403,-0.79684 1.3945,-1.2773 1.44141,-1.44141 l 0.63281,0 c 0.53903,4e-5 1.04293,-0.16402 1.51172,-0.49219 z m -10.79297,14.20313 c -0.32815,0.0703 -0.63284,0.32815 -0.91406,0.77343 -0.28128,0.44535 -0.57424,0.78519 -0.87891,1.01954 l -0.14063,-0.14063 c -0.4922,0.39847 -1.07814,0.7969 -1.75781,1.19531 -0.6797,0.39847 -1.03127,0.59769 -1.05469,0.59766 l -0.14062,0 c -0.44533,0.63284 -0.94924,1.23049 -1.51172,1.79297 -0.77345,0.32815 -1.20705,0.5508 -1.30078,0.66797 -0.0938,0.11721 -0.22267,0.35158 -0.38672,0.70312 -0.37501,0.86721 -0.84376,1.55862 -1.40625,2.07422 l -0.14062,0.66797 -0.14063,0.14062 1.30078,0.63282 0.77344,0 0.66797,1.01953 1.51172,0 0.91406,0.42187 1.65234,-0.42187 0.21094,0 c 0.3281,2e-5 0.55662,0.0586 0.68555,0.17578 0.12888,0.11721 0.42771,0.53908 0.89648,1.26562 l 0.52735,0.14063 0.49218,0 0.14063,-0.63281 0.28125,0 0.73828,-3.90235 0,-1.30078 0.63281,-1.16015 -0.49219,-2.42579 0.49219,-3.30468 -0.21094,-0.31641 c -0.14065,-0.32809 -0.39846,-0.49216 -0.77343,-0.49219 -0.44534,3e-5 -0.668,0.26957 -0.66797,0.8086 z"
         style="font-size:72px;font-weight:normal;font-family:Viner Hand ITC;-inkscape-font-specification:Viner Hand ITC"
         id="path2985" />
    </g>
  </g>
</svg>
