<?xml version="1.0" encoding="UTF-8" standalone="no"?>
<!-- Created with Inkscape (http://www.inkscape.org/) -->

<svg
   xmlns:dc="http://purl.org/dc/elements/1.1/"
   xmlns:cc="http://creativecommons.org/ns#"
   xmlns:rdf="http://www.w3.org/1999/02/22-rdf-syntax-ns#"
   xmlns:svg="http://www.w3.org/2000/svg"
   xmlns="http://www.w3.org/2000/svg"
   xmlns:sodipodi="http://sodipodi.sourceforge.net/DTD/sodipodi-0.dtd"
   xmlns:inkscape="http://www.inkscape.org/namespaces/inkscape"
   width="52.880001"
   height="52.880001"
   id="svg2"
   version="1.1"
   inkscape:version="0.48.5 r10040"
   sodipodi:docname="5.svg">
  <defs
     id="defs4" />
  <sodipodi:namedview
     id="base"
     pagecolor="#ffffff"
     bordercolor="#666666"
     borderopacity="1.0"
     inkscape:pageopacity="0.0"
     inkscape:pageshadow="2"
     inkscape:zoom="1.4"
     inkscape:cx="47.801946"
     inkscape:cy="-19.049088"
     inkscape:document-units="px"
     inkscape:current-layer="layer1"
     showgrid="false"
     fit-margin-top="0"
     fit-margin-left="0"
     fit-margin-right="0"
     fit-margin-bottom="0"
     inkscape:window-width="1366"
     inkscape:window-height="705"
     inkscape:window-x="-8"
     inkscape:window-y="-8"
     inkscape:window-maximized="1" />
  <metadata
     id="metadata7">
    <rdf:RDF>
      <cc:Work
         rdf:about="">
        <dc:format>image/svg+xml</dc:format>
        <dc:type
           rdf:resource="http://purl.org/dc/dcmitype/StillImage" />
        <dc:title />
      </cc:Work>
    </rdf:RDF>
  </metadata>
  <g
     inkscape:label="Capa 1"
     inkscape:groupmode="layer"
     id="layer1"
     transform="translate(-302.19806,-346.14737)">
    <g
       style="font-size:40px;font-style:normal;font-variant:normal;font-weight:bold;font-stretch:normal;line-height:125%;letter-spacing:0px;word-spacing:0px;fill:#000000;fill-opacity:1;stroke:none;font-family:Oswald;-inkscape-font-specification:Oswald Bold"
       id="text2985">
      <path
         d="m 329.71033,347.13425 c 1.03123,0.72661 1.87498,1.08989 2.53125,1.08984 l 0.84375,0 0,0.14063 4.46484,0 0.66797,0.14062 0.70312,0 0.87891,0.0703 2.14453,-0.0703 0.87891,0.28125 0.14062,-0.28125 1.9336,-0.14062 3.41015,-0.8086 c 0.86715,5e-5 1.41793,0.48052 1.65235,1.44141 -0.14067,0.32817 -0.38676,1.03129 -0.73828,2.10937 l -2.8125,1.79297 c -0.42191,0.35161 -0.90238,0.69731 -1.44141,1.03711 -0.5391,0.33989 -0.82035,0.54496 -0.84375,0.61524 l -0.87891,0.21093 -0.70312,-0.21093 -0.0703,0.21093 c -3.00003,0.0704 -4.66409,0.26957 -4.99219,0.59766 -0.53909,-0.3984 -1.20706,-0.59762 -2.00391,-0.59766 l -2.67187,1.16016 -1.30078,0 -0.63282,0.73828 c -0.0234,0.44535 -0.45705,1.30082 -1.30078,2.56641 -0.37502,1.03128 -0.56252,1.92191 -0.5625,2.67187 -2e-5,0.63285 0.21092,0.94925 0.63281,0.94922 0.35155,3e-5 0.92577,-0.15231 1.72266,-0.45703 l 0.21094,0.0703 c 0.21092,-0.18747 0.45701,-0.28122 0.73828,-0.28125 0.3281,3e-5 0.58592,0.17582 0.77344,0.52735 0.28123,-0.11716 0.76169,-0.17575 1.4414,-0.17579 0.28123,4e-5 0.7617,0.10551 1.44141,0.31641 l 0.45703,-0.38672 1.51172,0.52735 c 0.56247,0.56253 0.98435,0.94925 1.26562,1.16015 0.72654,1.78128 1.08982,3.18753 1.08985,4.21875 -3e-5,1.26565 -0.55081,2.44924 -1.65235,3.55078 l -0.77343,0.77344 -1.44141,2.03906 c -0.96096,0.51565 -1.53518,0.85549 -1.72266,1.01953 -0.18752,0.16409 -0.3926,0.44534 -0.61523,0.84375 -0.22268,0.39846 -0.38088,0.85549 -0.47461,1.3711 l -0.73828,0 c -0.30471,0.14064 -0.49221,0.3047 -0.5625,0.49219 -0.39846,0.0703 -0.59768,0.21095 -0.59766,0.42187 l -1.33593,1.65234 -0.8086,0 -0.8789,1.08985 0,0.42187 -0.35157,0 -0.28125,1.16016 -0.42187,-0.5625 c -0.25783,0.51564 -0.64455,0.77345 -1.16016,0.77344 0.0469,0.14063 -0.45704,0.79688 -1.51172,1.96875 -0.72657,0.53907 -1.11329,0.84376 -1.16015,0.91406 l -0.77344,-0.0703 c -0.35157,0.21094 -0.69728,0.63282 -1.03711,1.26562 -0.33985,0.63282 -0.56837,0.98438 -0.68555,1.05469 l -2.39062,1.05469 -0.73828,1.16015 -1.72266,0.38672 -0.14062,0.14063 0.0703,0.28125 1.30078,-0.35157 0.21094,0 c 1.17186,10e-6 2.08593,0.57423 2.74218,1.72266 l -2.07421,1.37109 c -0.56251,0.46875 -0.9961,1.23047 -1.30079,2.28516 l -1.16015,0 -0.87891,1.08984 c -0.96094,0.0703 -1.53516,0.50391 -1.72265,1.30079 -0.30469,0.2578 -0.69141,0.52733 -1.16016,0.80859 l -1.30078,0.73828 c -0.375,0.21093 -0.79688,0.3164 -1.26563,0.31641 -1.33593,-1e-5 -2.0039,-0.93751 -2.0039,-2.8125 l 0.14062,-0.84375 -0.59765,-0.94922 1.16015,-1.86328 c 0.82032,0 1.23047,-0.36328 1.23047,-1.08985 0.53906,-0.16406 0.84375,-0.28125 0.91406,-0.35156 l -0.28125,-0.52734 0.66797,-0.28125 0,-0.49219 0.63281,0 2.53125,-1.93359 0,-0.73829 0.91407,0 1.82812,-1.58203 0,0.14063 1.19531,-1.01953 0.17579,0.17578 c -1e-5,-0.23437 0.71483,-0.92577 2.14453,-2.07422 l 1.58203,-1.19531 2.74219,-2.56641 1.79296,-1.30078 0.8086,-1.08984 0.77344,-0.77344 0.66796,-1.01953 0.66797,-0.63282 c 0.21092,-0.21091 0.56248,-0.76169 1.05469,-1.65234 0.49217,-0.8906 0.96092,-1.62888 1.40625,-2.21484 0.44529,-0.58592 0.66795,-0.91404 0.66797,-0.98438 -2e-5,-0.39841 -0.48049,-1.0195 -1.44141,-1.86328 l -1.4414,0.14063 -0.42188,-0.14063 -1.79297,0.14063 -0.45703,0.14062 c -0.14064,3e-5 -0.44533,-0.11716 -0.91406,-0.35156 l -1.01953,0.28125 c -1.28908,0.72659 -2.32033,1.08987 -3.09375,1.08984 -0.56251,3e-5 -1.20704,-0.36325 -1.9336,-1.08984 -0.72657,-0.72654 -1.08985,-1.61716 -1.08984,-2.67188 l 0,-0.70312 c 0.67968,3e-5 1.01952,-0.19919 1.01953,-0.59766 l 0,-1.05469 0.49219,0.28125 0.21094,-0.0703 -0.0703,-0.8789 0.42188,-0.42188 -0.0703,-0.28125 0.80859,-1.01953 0,-1.01953 0.28125,0 0,-0.70313 0.21094,-0.70312 0,-0.31641 0.3164,-1.6875 c 0.0703,-0.28121 0.37499,-0.91402 0.91407,-1.89844 l -0.0703,-0.73828 c -0.32813,-0.46871 -0.49219,-0.91402 -0.49218,-1.33593 l 0.0703,-1.16016 0,-0.45703 c 0.51561,-0.84371 1.13671,-1.39449 1.86328,-1.65235 l 0,-0.21093 0.70313,-0.42188 0.17578,-0.5625 0.77343,-0.17578 0.42188,-0.77344 z"
         style="font-size:72px;font-weight:normal;font-family:Viner Hand ITC;-inkscape-font-specification:Viner Hand ITC"
         id="path2985" />
    </g>
  </g>
</svg>
