<?xml version="1.0" encoding="UTF-8" standalone="no"?>
<!-- Created with Inkscape (http://www.inkscape.org/) -->

<svg
   xmlns:dc="http://purl.org/dc/elements/1.1/"
   xmlns:cc="http://creativecommons.org/ns#"
   xmlns:rdf="http://www.w3.org/1999/02/22-rdf-syntax-ns#"
   xmlns:svg="http://www.w3.org/2000/svg"
   xmlns="http://www.w3.org/2000/svg"
   xmlns:sodipodi="http://sodipodi.sourceforge.net/DTD/sodipodi-0.dtd"
   xmlns:inkscape="http://www.inkscape.org/namespaces/inkscape"
   width="52.880001"
   height="52.880001"
   id="svg2"
   version="1.1"
   inkscape:version="0.48.5 r10040"
   sodipodi:docname="6.svg">
  <defs
     id="defs4" />
  <sodipodi:namedview
     id="base"
     pagecolor="#ffffff"
     bordercolor="#666666"
     borderopacity="1.0"
     inkscape:pageopacity="0.0"
     inkscape:pageshadow="2"
     inkscape:zoom="1.4"
     inkscape:cx="47.801946"
     inkscape:cy="-19.049088"
     inkscape:document-units="px"
     inkscape:current-layer="layer1"
     showgrid="false"
     fit-margin-top="0"
     fit-margin-left="0"
     fit-margin-right="0"
     fit-margin-bottom="0"
     inkscape:window-width="1366"
     inkscape:window-height="705"
     inkscape:window-x="-8"
     inkscape:window-y="-8"
     inkscape:window-maximized="1" />
  <metadata
     id="metadata7">
    <rdf:RDF>
      <cc:Work
         rdf:about="">
        <dc:format>image/svg+xml</dc:format>
        <dc:type
           rdf:resource="http://purl.org/dc/dcmitype/StillImage" />
        <dc:title />
      </cc:Work>
    </rdf:RDF>
  </metadata>
  <g
     inkscape:label="Capa 1"
     inkscape:groupmode="layer"
     id="layer1"
     transform="translate(-302.19806,-346.14737)">
    <g
       style="font-size:40px;font-style:normal;font-variant:normal;font-weight:bold;font-stretch:normal;line-height:125%;letter-spacing:0px;word-spacing:0px;fill:#000000;fill-opacity:1;stroke:none;font-family:Oswald;-inkscape-font-specification:Oswald Bold"
       id="text2985">
      <path
         d="m 335.31775,347.34518 c 0.42185,0.86724 0.63279,1.5938 0.63281,2.17969 -2e-5,0.49223 -0.18752,1.10161 -0.5625,1.82813 -0.18752,0.3516 -0.33986,1.00785 -0.45703,1.96875 l -0.42187,0 c -1.14846,0.32816 -1.72268,0.87894 -1.72266,1.65234 l 0.42187,1.51172 c -0.37502,0.65629 -0.68556,1.14261 -0.93164,1.45898 -0.24611,0.31645 -0.41603,0.62699 -0.50976,0.93164 l -0.14063,0 -0.42187,1.65235 0.21094,0.35156 c -0.18752,0.46878 -0.71487,1.043 -1.58204,1.72266 l -0.80859,3.33984 -0.63281,0.14063 -0.49219,0.91406 0,0.24609 c -1e-5,0.7969 -0.31642,1.37112 -0.94922,1.72266 l 0.21094,0.5625 -0.28125,0 c -0.0703,1.10158 -0.52736,2.03908 -1.37109,2.8125 l -0.87891,1.86328 -0.49219,1.30078 -1.51172,2.32031 c -0.28126,0.84377 -0.42188,1.62892 -0.42187,2.35547 -1e-5,0.28127 0.0469,0.59767 0.14062,0.94922 -0.0938,0.28126 -0.14063,0.4922 -0.14062,0.63281 l 0.70312,-0.14062 1.01953,-0.91406 0.49219,0 0.8086,-0.66797 1.65234,-0.21094 c 0.35155,-0.6328 0.87889,-0.9492 1.58203,-0.94922 l 0.21094,0 0.14062,-0.14062 4.11328,-0.98438 c 0.23436,-0.39842 0.50389,-0.59764 0.8086,-0.59766 0.0703,2e-5 0.16404,0.0235 0.28125,0.0703 0.11716,0.0469 0.21091,0.0703 0.28125,0.0703 l 0.14062,0 2.32032,-0.0703 1.4414,-0.49219 c 0.16404,2e-5 0.97263,0.33986 2.42578,1.01953 l 0.14063,0.42188 0,0.14062 0.80859,0.70313 0.77344,0.17578 -0.21094,0.5625 0,0.21093 0.49219,1.01954 -0.49219,0.98437 0.28125,1.44141 c -3e-5,0.1172 -0.38089,0.82618 -1.14258,2.12695 -0.76174,1.30079 -1.28323,2.05665 -1.56445,2.26758 l 0,-0.35156 -1.16016,0.42187 0,0.31641 -0.28125,0 c -0.63283,0.51563 -1.30666,0.97852 -2.02148,1.38867 -0.71487,0.41016 -1.1719,0.71485 -1.37109,0.91406 -0.19924,0.19922 -0.49221,0.39258 -0.87891,0.58008 -0.38674,0.1875 -0.83791,0.44532 -1.35352,0.77344 l -0.35156,1.23047 -2.03906,0.63281 c -1.73439,1.14844 -3.33986,1.92187 -4.81641,2.32031 l -2.07422,0.28125 -3.09375,1.16016 c -1.6875,-0.21094 -2.77734,-0.78516 -3.26953,-1.72266 l -0.98437,-1.96875 -1.08985,-1.72266 0.35157,-0.63281 -0.28125,-1.08984 0,-0.21094 c -10e-6,-0.30468 -0.11719,-0.5039 -0.35157,-0.59766 l 0.28125,-0.63281 c 0.0469,-0.18749 0.14063,-0.45702 0.28125,-0.80859 0.44531,-0.51562 0.66797,-0.86718 0.66797,-1.05469 l 0,-1.01953 0.14063,-1.16016 0.21094,0.21094 c 0.37499,-1.05468 0.56249,-1.69921 0.5625,-1.93359 l 0.21093,0.14062 0.14063,-0.5625 0.17578,-0.0703 0,-0.21094 c 0,-0.39842 0.0879,-0.76756 0.26367,-1.10742 0.17578,-0.33983 0.39257,-1.02538 0.65039,-2.05664 l 0.35156,-0.38672 0.31641,-1.125 0.21094,0.0703 0,-0.24609 -0.42188,-0.35156 0.63282,0 0.77343,-1.79297 0.31641,-0.14063 0.63281,-1.4414 c 0.16406,-0.60936 0.38671,-1.04295 0.66797,-1.30078 l 0,-0.84375 0.28125,0 -0.21094,-0.94922 0.35157,0.28125 c 0.53905,-1.2656 0.86717,-1.91013 0.98437,-1.9336 0.0469,-0.58591 0.3164,-1.31247 0.80859,-2.17968 l -0.42187,-0.5625 c 0.0937,-0.44529 0.14061,-0.76169 0.14062,-0.94922 -10e-6,-0.39841 -0.0703,-0.7031 -0.21093,-0.91407 0.0703,-0.23434 0.2578,-0.43356 0.5625,-0.59765 l 0.35156,-0.84375 c 0.0937,-0.14059 0.24608,-0.6445 0.45703,-1.51172 0.32811,-2.01559 0.77343,-3.457 1.33594,-4.32422 0.56248,-0.56246 0.90819,-0.9902 1.03711,-1.2832 0.12889,-0.29293 0.19334,-0.68551 0.19336,-1.17774 -2e-5,-0.53902 -0.0469,-0.94917 -0.14063,-1.23047 l 0.35156,0 0.8086,-3.375 0.5625,-0.98437 0.3164,0 0,-0.45703 c 0.35155,-0.51558 0.79686,-0.86714 1.33594,-1.05469 0.89061,-0.0937 1.42967,-0.38667 1.61719,-0.87891 0.63279,-0.72651 1.48826,-1.08979 2.56641,-1.08984 0.86716,5e-5 1.30075,0.26958 1.30078,0.80859 -3e-5,0.44536 -0.25784,0.72661 -0.77344,0.84375 z m -1.23047,33.92579 -0.94922,0.21093 0,0.21094 -1.01953,-0.21094 c -0.0469,2e-5 -0.24025,0.0645 -0.58008,0.19336 -0.33986,0.12892 -0.59181,0.31056 -0.75586,0.54492 l -0.3164,-0.38671 c -1.07814,0.89063 -2.41408,1.3711 -4.00782,1.4414 l 0,0.14063 -1.23046,-0.14063 -1.30079,0.94922 -0.80859,0.24609 c -0.23438,0.0703 -0.70313,0.42189 -1.40625,1.05469 l 0,0.28125 c -1.31251,0.58595 -1.96876,1.85157 -1.96875,3.79688 -1e-5,0.82031 0.0937,1.3418 0.28125,1.56445 0.18749,0.22266 0.48046,0.33399 0.87891,0.33398 0.86718,10e-6 1.5996,-0.11132 2.19726,-0.33398 0.59765,-0.22265 0.96679,-0.33398 1.10742,-0.33398 l 0.73829,0.14062 0.49218,0 1.16016,-0.35156 c 0.37499,0 0.67967,0.11719 0.91406,0.35156 0.77342,0.11719 1.23045,0.17579 1.3711,0.17578 0.37498,10e-6 0.9492,-0.26953 1.72265,-0.80859 l 3.69141,-2.46094 c 0.5156,-0.8203 0.94919,-1.69921 1.30078,-2.63672 l 0.5625,-0.17578 c 0.18748,-0.0937 0.36326,-0.83202 0.52734,-2.21484 z"
         style="font-size:72px;font-weight:normal;font-family:Viner Hand ITC;-inkscape-font-specification:Viner Hand ITC"
         id="path2985" />
    </g>
  </g>
</svg>
