<?xml version="1.0" encoding="UTF-8" standalone="no"?>
<!-- Created with Inkscape (http://www.inkscape.org/) -->

<svg
   xmlns:dc="http://purl.org/dc/elements/1.1/"
   xmlns:cc="http://creativecommons.org/ns#"
   xmlns:rdf="http://www.w3.org/1999/02/22-rdf-syntax-ns#"
   xmlns:svg="http://www.w3.org/2000/svg"
   xmlns="http://www.w3.org/2000/svg"
   xmlns:sodipodi="http://sodipodi.sourceforge.net/DTD/sodipodi-0.dtd"
   xmlns:inkscape="http://www.inkscape.org/namespaces/inkscape"
   width="52.880001"
   height="52.880001"
   id="svg2"
   version="1.1"
   inkscape:version="0.48.5 r10040"
   sodipodi:docname="7.svg">
  <defs
     id="defs4" />
  <sodipodi:namedview
     id="base"
     pagecolor="#ffffff"
     bordercolor="#666666"
     borderopacity="1.0"
     inkscape:pageopacity="0.0"
     inkscape:pageshadow="2"
     inkscape:zoom="1.4"
     inkscape:cx="47.801946"
     inkscape:cy="-19.049088"
     inkscape:document-units="px"
     inkscape:current-layer="layer1"
     showgrid="false"
     fit-margin-top="0"
     fit-margin-left="0"
     fit-margin-right="0"
     fit-margin-bottom="0"
     inkscape:window-width="1366"
     inkscape:window-height="705"
     inkscape:window-x="-8"
     inkscape:window-y="-8"
     inkscape:window-maximized="1" />
  <metadata
     id="metadata7">
    <rdf:RDF>
      <cc:Work
         rdf:about="">
        <dc:format>image/svg+xml</dc:format>
        <dc:type
           rdf:resource="http://purl.org/dc/dcmitype/StillImage" />
        <dc:title />
      </cc:Work>
    </rdf:RDF>
  </metadata>
  <g
     inkscape:label="Capa 1"
     inkscape:groupmode="layer"
     id="layer1"
     transform="translate(-302.19806,-346.14737)">
    <g
       style="font-size:40px;font-style:normal;font-variant:normal;font-weight:bold;font-stretch:normal;line-height:125%;letter-spacing:0px;word-spacing:0px;fill:#000000;fill-opacity:1;stroke:none;font-family:Oswald;-inkscape-font-specification:Oswald Bold"
       id="text2985">
      <path
         d="m 332.73376,351.24753 0.35157,-0.21094 4.67578,-0.80859 3.48047,-0.91407 c 0.63278,-0.53901 1.06637,-0.80854 1.30078,-0.80859 0.84371,5e-5 1.82809,0.5977 2.95312,1.79297 l -0.66797,1.16016 0.87891,0.80859 -0.28125,0.91406 -2.10937,1.86328 0,0.8086 c -0.77348,0.25785 -1.24223,0.52152 -1.40625,0.79101 -0.1641,0.26957 -0.56254,0.65043 -1.19532,1.14258 l 0,0.87891 c -0.35159,0.60941 -0.75003,0.91409 -1.19531,0.91406 l -1.01953,-0.28125 -0.14063,0.28125 c -0.75002,0.98441 -1.16018,1.59378 -1.23046,1.82812 l -0.70313,0.42188 -0.0703,1.23047 -3.55078,4.46484 c -0.4219,0.4219 -0.82034,0.9844 -1.19532,1.6875 -0.37502,0.70315 -0.86721,1.21878 -1.47656,1.54688 l -0.91406,2.14453 -0.45703,0.45703 0,1.58203 -2.00391,2.56641 -2.0039,4.32422 0.14062,0.45703 -0.5625,1.93359 c 0.23436,1.07814 0.56834,1.69337 1.00195,1.8457 0.43358,0.15236 0.791,0.22853 1.07227,0.22852 l -0.35156,2.10937 -0.45703,1.72266 -0.63282,0.63281 -1.16015,2.95313 -0.8086,0.70312 c -0.28126,0.21094 -0.65626,0.67969 -1.125,1.40625 -1.35938,0.51563 -2.50782,1.06641 -3.44531,1.65235 l -0.73828,-1.08985 c -0.0469,-0.0469 -0.0703,-0.14062 -0.0703,-0.28125 l 0.14062,-0.73828 c -1e-5,-0.14062 -0.0234,-0.25781 -0.0703,-0.35156 l 0.94922,0 -0.73828,-2.14453 c 0.91405,-0.91406 1.37108,-1.875 1.37109,-2.88281 l -0.14062,-1.01954 c -1e-5,-0.30468 0.0527,-0.62108 0.1582,-0.94921 0.10546,-0.32812 0.20507,-0.56836 0.29883,-0.72071 0.0937,-0.15233 0.23436,-0.69725 0.42187,-1.63476 l 0.35156,-0.14063 -0.14062,-0.35156 c 0.28124,-0.37499 0.56249,-0.8789 0.84375,-1.51172 -1e-5,-0.77342 0.45702,-1.71092 1.37109,-2.8125 l 0,-1.08984 0.52735,-0.49219 1.82812,-4.53516 c 0.42186,-1.05466 0.86717,-1.58201 1.33594,-1.58203 l 0.14062,0 0,-0.45703 c -1e-5,-1.2656 0.30467,-2.17966 0.91407,-2.74219 l 0.24609,-1.19531 c 0.42186,-0.21091 0.67967,-0.48044 0.77344,-0.80859 0.37498,-0.25779 0.56248,-0.57419 0.5625,-0.94922 l 1.16015,-1.9336 0.35157,-0.21093 0.28125,-0.98438 c 0.0703,-0.2109 0.24607,-0.457 0.52734,-0.73828 l 1.08984,-1.08984 -0.28125,-1.16016 c 0.37498,-1.1484 0.65623,-1.91598 0.84375,-2.30273 0.18748,-0.38669 0.28123,-0.72067 0.28125,-1.00196 -2e-5,-0.42183 -0.39846,-0.63277 -1.19531,-0.63281 l -0.52734,0 -0.14063,-0.21094 c -1.00783,-0.11715 -1.6758,-0.1523 -2.0039,-0.10547 l -1.89844,0.52735 -0.42188,0 -0.5625,0.28125 c -0.96095,-0.14059 -1.46486,-0.23434 -1.51171,-0.28125 l -0.8086,-0.59766 -1.58203,0.52735 -0.28125,-0.42188 -0.70312,0.42188 -0.73829,-0.59766 -1.51171,0.17578 -1.23047,-0.17578 -1.23047,0.45703 -0.21094,-0.66797 -0.42187,0 -1.23047,0.8086 -1.16016,-0.59766 -1.125,0.38672 -0.94922,-2.25 c 0.32812,-0.49215 0.6914,-0.87887 1.08985,-1.16016 0.39843,-0.28121 0.65624,-0.42183 0.77343,-0.42187 l 0.21094,0 c 0.23437,-0.37496 0.48046,-0.5859 0.73828,-0.63282 l 0.21094,0.21094 0,-0.21094 c -1e-5,-1.2187 0.66796,-1.92183 2.00391,-2.10937 0.2578,-0.32808 0.71483,-0.49214 1.37109,-0.49219 l 0.21094,-0.42187 c 1.66405,0.37504 2.73045,0.56254 3.19922,0.5625 0.11717,-0.0937 0.39842,-0.14058 0.84375,-0.14063 0.23436,5e-5 0.78514,0.0938 1.65234,0.28125 0.72655,0.44536 1.91014,0.66801 3.55078,0.66797 l 2.35547,0.35156 0.66797,-0.0703 z"
         style="font-size:72px;font-weight:normal;font-family:Viner Hand ITC;-inkscape-font-specification:Viner Hand ITC"
         id="path2985" />
    </g>
  </g>
</svg>
