<?xml version="1.0" encoding="UTF-8" standalone="no"?>
<!-- Created with Inkscape (http://www.inkscape.org/) -->

<svg
   xmlns:dc="http://purl.org/dc/elements/1.1/"
   xmlns:cc="http://creativecommons.org/ns#"
   xmlns:rdf="http://www.w3.org/1999/02/22-rdf-syntax-ns#"
   xmlns:svg="http://www.w3.org/2000/svg"
   xmlns="http://www.w3.org/2000/svg"
   xmlns:sodipodi="http://sodipodi.sourceforge.net/DTD/sodipodi-0.dtd"
   xmlns:inkscape="http://www.inkscape.org/namespaces/inkscape"
   width="52.880001"
   height="52.880001"
   id="svg2"
   version="1.1"
   inkscape:version="0.48.5 r10040"
   sodipodi:docname="8.svg">
  <defs
     id="defs4" />
  <sodipodi:namedview
     id="base"
     pagecolor="#ffffff"
     bordercolor="#666666"
     borderopacity="1.0"
     inkscape:pageopacity="0.0"
     inkscape:pageshadow="2"
     inkscape:zoom="1.4"
     inkscape:cx="47.801946"
     inkscape:cy="-19.049088"
     inkscape:document-units="px"
     inkscape:current-layer="layer1"
     showgrid="false"
     fit-margin-top="0"
     fit-margin-left="0"
     fit-margin-right="0"
     fit-margin-bottom="0"
     inkscape:window-width="1366"
     inkscape:window-height="705"
     inkscape:window-x="-8"
     inkscape:window-y="-8"
     inkscape:window-maximized="1" />
  <metadata
     id="metadata7">
    <rdf:RDF>
      <cc:Work
         rdf:about="">
        <dc:format>image/svg+xml</dc:format>
        <dc:type
           rdf:resource="http://purl.org/dc/dcmitype/StillImage" />
        <dc:title />
      </cc:Work>
    </rdf:RDF>
  </metadata>
  <g
     inkscape:label="Capa 1"
     inkscape:groupmode="layer"
     id="layer1"
     transform="translate(-302.19806,-346.14737)">
    <g
       style="font-size:40px;font-style:normal;font-variant:normal;font-weight:bold;font-stretch:normal;line-height:125%;letter-spacing:0px;word-spacing:0px;fill:#000000;fill-opacity:1;stroke:none;font-family:Oswald;-inkscape-font-specification:Oswald Bold"
       id="text2985">
      <path
         d="m 323.11853,351.03659 0.52734,0 c 1.0078,4e-5 1.51171,0.35161 1.51172,1.05469 -1e-5,0.32817 -0.1758,0.73832 -0.52734,1.23047 -0.23439,0.18754 -0.35158,0.48051 -0.35156,0.8789 l 1.01953,0.21094 1.37109,-0.87891 1.65235,-1.33593 2.95312,-0.59766 1.72266,0.28125 3.30468,-0.70312 2.60157,0.5625 1.37109,0.14062 0.70313,-0.5625 1.23046,0.14063 0.91407,0.0352 c 0.25777,0.0235 0.9609,0.2227 2.10937,0.59766 l 0.77344,-0.49219 c 0.98433,0.14067 1.66402,0.48637 2.03906,1.03711 0.37496,0.55082 0.56246,1.02543 0.5625,1.42383 l 0,0.21094 c -4e-5,0.30472 -0.0528,0.56254 -0.1582,0.77343 -0.10551,0.21098 -0.23442,0.42192 -0.38672,0.63282 -0.15238,0.21097 -0.29887,0.37503 -0.43945,0.49218 -0.14067,0.11723 -0.29301,0.32817 -0.45703,0.63282 -0.16411,0.30472 -0.35161,0.58011 -0.5625,0.82617 -0.21098,0.24613 -0.45707,0.47464 -0.73829,0.68554 l -1.72265,1.19532 -0.63281,0.94922 -8.22657,6.11718 -0.49218,0.73828 -2.88282,1.58204 -1.86328,2.14453 -1.79297,0.66797 0.0703,0.5625 0,0.14062 0.94921,1.19531 c 0.11717,0.16409 0.23436,0.56252 0.35157,1.19532 l 0.70312,0.77343 2.07422,4.67578 0.17578,1.16016 0.42188,0.42188 -0.35157,2.67187 0,1.23047 -3.41015,3.58594 -5.66016,3.83203 -1.37109,1.4414 -1.16016,-0.28125 -3.375,1.9336 c -0.18751,0.375 -0.69141,0.5625 -1.51172,0.5625 -0.63282,0 -1.35938,-0.0937 -2.17968,-0.28125 l -2.14454,-0.49219 -2.32031,-2.95312 -0.84375,-1.9336 0.5625,-1.16015 -0.0703,-0.87891 1.51172,-1.86328 0.94922,-2.00391 c 0.67968,-0.98436 1.21874,-1.69921 1.61718,-2.14453 0.39844,-0.4453 0.96094,-1.1953 1.6875,-2.25 0.44531,-0.30467 0.72656,-0.52733 0.84375,-0.66797 l 2.39063,-2.42578 c 0.89061,-0.84373 1.62889,-1.52342 2.21484,-2.03906 l -0.14062,-0.21094 0,-0.70312 0.21094,-0.31641 -2.07422,-3.375 -1.08985,-3.09375 -0.35156,-0.42188 0.14063,-0.42187 -0.42188,-0.45703 -0.49219,-2.35547 -1.16015,-0.80859 c -0.0703,-0.28122 -0.4336,-0.76169 -1.08985,-1.44141 0,-0.18747 0.10547,-0.457 0.31641,-0.80859 l 0.24609,-0.42188 0.66797,-2.56641 1.65235,-1.37109 0.21093,-1.08984 3.6211,-3.16407 1.05468,-0.49218 z m 7.34766,5.09766 -2.00391,1.72265 -1.44141,0.94922 -0.66796,1.72266 -1.65235,-0.0703 -0.35156,0.5625 -0.87891,0 c -0.18751,0.75003 -0.28126,1.33597 -0.28125,1.75781 l 0.21094,1.26562 0,0.17578 0.17578,0.5625 1.125,1.01954 0.38672,1.4414 0.63281,0.94922 c 0.23436,0.32815 0.39842,0.72659 0.49219,1.19531 l 0.73828,0.14063 c 1.26561,-0.7031 2.23826,-1.34763 2.91797,-1.9336 0.67967,-0.58591 1.01951,-0.99606 1.01953,-1.23046 l 3.48047,-2.95313 c 1.99216,-1.35934 3.09372,-2.15622 3.30469,-2.39062 l 1.51172,-1.58204 1.23047,-0.70312 0.35156,-0.73828 -2.00391,-0.5625 0,-0.14063 -0.8789,-0.14062 -0.70313,0.21094 -1.96875,-0.70313 -2.42578,0.28125 z m -8.40235,21.30468 0,0.14063 c -1e-5,0.46877 -0.16407,0.84377 -0.49218,1.125 -0.32814,0.28127 -0.50392,0.44533 -0.52735,0.49219 l -1.23047,1.79297 -2.07422,1.58203 -0.94921,1.72265 -1.01954,0.94922 -0.49218,1.30078 c -0.0469,0.14064 -0.36329,0.51564 -0.94922,1.125 l 0.0703,2.46094 0.17578,1.01953 c -10e-6,0.11719 0.16406,0.19922 0.49219,0.2461 l 0.49219,0.10546 2.53125,-0.28125 3.30468,-1.08984 0.73829,-0.42187 c 0.28123,-0.16406 0.53904,-0.24609 0.77343,-0.2461 l 1.01953,-0.0703 c 0.46874,-0.96093 1.32421,-1.72265 2.56641,-2.28516 0.25779,-0.49218 0.3867,-0.92577 0.38672,-1.30078 l -0.14063,-0.8789 0,-0.28125 c -0.77345,-0.98437 -1.47072,-2.07421 -2.09179,-3.26954 -0.62111,-1.19529 -0.93166,-1.89842 -0.93164,-2.10937 l 0,-1.01953 -0.59766,-1.30078 -0.77344,0 z"
         style="font-size:72px;font-weight:normal;font-family:Viner Hand ITC;-inkscape-font-specification:Viner Hand ITC"
         id="path2985" />
    </g>
  </g>
</svg>
