<?xml version="1.0" encoding="UTF-8" standalone="no"?>
<!-- Created with Inkscape (http://www.inkscape.org/) -->

<svg
   xmlns:dc="http://purl.org/dc/elements/1.1/"
   xmlns:cc="http://creativecommons.org/ns#"
   xmlns:rdf="http://www.w3.org/1999/02/22-rdf-syntax-ns#"
   xmlns:svg="http://www.w3.org/2000/svg"
   xmlns="http://www.w3.org/2000/svg"
   xmlns:sodipodi="http://sodipodi.sourceforge.net/DTD/sodipodi-0.dtd"
   xmlns:inkscape="http://www.inkscape.org/namespaces/inkscape"
   width="52.880001"
   height="52.880001"
   id="svg2"
   version="1.1"
   inkscape:version="0.48.5 r10040"
   sodipodi:docname="9.svg">
  <defs
     id="defs4" />
  <sodipodi:namedview
     id="base"
     pagecolor="#ffffff"
     bordercolor="#666666"
     borderopacity="1.0"
     inkscape:pageopacity="0.0"
     inkscape:pageshadow="2"
     inkscape:zoom="1.4"
     inkscape:cx="47.801946"
     inkscape:cy="-19.049088"
     inkscape:document-units="px"
     inkscape:current-layer="layer1"
     showgrid="false"
     fit-margin-top="0"
     fit-margin-left="0"
     fit-margin-right="0"
     fit-margin-bottom="0"
     inkscape:window-width="1366"
     inkscape:window-height="705"
     inkscape:window-x="-8"
     inkscape:window-y="-8"
     inkscape:window-maximized="1" />
  <metadata
     id="metadata7">
    <rdf:RDF>
      <cc:Work
         rdf:about="">
        <dc:format>image/svg+xml</dc:format>
        <dc:type
           rdf:resource="http://purl.org/dc/dcmitype/StillImage" />
        <dc:title />
      </cc:Work>
    </rdf:RDF>
  </metadata>
  <g
     inkscape:label="Capa 1"
     inkscape:groupmode="layer"
     id="layer1"
     transform="translate(-302.19806,-346.14737)">
    <g
       style="font-size:40px;font-style:normal;font-variant:normal;font-weight:bold;font-stretch:normal;line-height:125%;letter-spacing:0px;word-spacing:0px;fill:#000000;fill-opacity:1;stroke:none;font-family:Oswald;-inkscape-font-specification:Oswald Bold"
       id="text2985">
      <path
         d="m 333.10291,344.46237 1.65234,1.01953 0.66797,1.23047 0.63281,0.14063 0.87891,1.16015 0,0.63282 c -3e-5,0.77348 0.11716,1.30082 0.35156,1.58203 l 0.35156,-0.14063 0.21094,0.0703 0.45703,-0.5625 0.70313,0.14063 0.42187,-0.31641 c 0.11716,-0.0703 0.70309,-0.23433 1.75781,-0.49218 0.23435,0.21098 0.832,0.36332 1.79297,0.45703 0.2109,-0.72652 0.57419,-1.0898 1.08985,-1.08985 0.25777,5e-5 0.53316,0.15239 0.82617,0.45703 0.29293,0.30474 0.43941,0.63286 0.43945,0.98438 -4e-5,0.14067 -0.0704,0.35161 -0.21094,0.63281 l -0.98437,1.65235 -0.35156,1.4414 c -0.11723,0.44536 -0.43363,1.19535 -0.94922,2.25 -0.65629,0.42192 -1.04301,0.87895 -1.16016,1.3711 l -0.63281,1.51171 -1.96875,3.16407 -1.16016,1.16015 -1.40625,3.375 -2.32031,2.46094 -0.49219,1.44141 -0.80859,1.05468 -1.23047,1.89844 -1.30078,0.49219 0.17578,0.28125 -0.52734,1.01953 0.28125,0 -0.70313,1.65234 c -1.50002,1.59377 -2.25002,3.10549 -2.25,4.53516 l 0,1.79297 -0.91406,3.97266 0,1.125 -0.28125,0 c -0.21096,0.39844 -0.31643,0.69141 -0.31641,0.8789 l 0.17578,0.70313 0,1.54687 c -1e-5,0.72657 0.14061,1.125 0.42188,1.19531 l 4.18359,-1.93359 1.26563,0.5625 0.24609,0.94922 c -2e-5,0.0469 -0.12307,0.4336 -0.36914,1.16016 -0.24612,0.72656 -0.48635,1.16015 -0.7207,1.30078 l -2.95313,1.58203 -1.16015,1.125 -4.39454,1.96875 -2.28515,0.28125 0.35156,-2.25 -0.66797,-0.98438 1.30078,-7.20703 1.44141,-7.0664 1.30078,-0.42188 0,-0.28125 c -1e-5,-0.84373 0.24608,-1.78123 0.73828,-2.8125 l 0.28125,0 0.77344,-1.37109 1.30078,-3.30469 1.23047,-2.03906 0.21094,-2.28516 0.8789,-0.49219 0.17578,-0.84375 c 0.0703,-0.25778 0.36326,-0.77341 0.87891,-1.54687 -0.11721,-0.39841 -0.44533,-0.65622 -0.98437,-0.77344 l -0.8086,0.42188 c -0.89064,0.6094 -1.8047,1.08987 -2.74219,1.4414 -0.60939,0.84378 -1.17189,1.3594 -1.6875,1.54688 -0.51564,0.18752 -1.46485,0.41604 -2.84765,0.68554 -1.38283,0.26956 -2.34962,0.52737 -2.90039,0.77344 -0.55079,0.24612 -1.17189,0.69143 -1.86328,1.33594 -0.69142,0.64455 -1.25978,0.96682 -1.70508,0.9668 -0.46876,2e-5 -0.88477,-0.33397 -1.24805,-1.00196 -0.36328,-0.66794 -0.81446,-1.41208 -1.35351,-2.23242 l 0,-1.44141 -0.35157,-1.16015 0.73828,-1.05469 0.35157,-1.44141 c 0.39843,-0.44528 0.72069,-0.86129 0.96679,-1.24804 0.24609,-0.38669 0.42187,-0.74997 0.52735,-1.08985 0.10546,-0.33981 0.42773,-0.9316 0.96679,-1.77539 l 1.125,-1.86328 2.25,-3.09375 0.98438,-0.80859 -0.14063,-0.14063 c 0.25781,-0.63277 0.73827,-1.18355 1.44141,-1.65234 l 0.28125,-1.16016 0.94922,-0.98437 1.05469,-1.30078 c 0.11717,-0.14058 0.56248,-0.45699 1.33593,-0.94922 l 0.14063,-0.5625 0.91406,-0.38672 1.75781,-2.00391 c 0.32811,-0.4687 0.72655,-0.70307 1.19532,-0.70312 l 0.66797,0.0703 2.14453,-0.14062 z m -3.09375,14.13281 -0.42188,-3.83203 c -0.21096,-0.86714 -0.48635,-1.58785 -0.82617,-2.16211 -0.33987,-0.57417 -0.63869,-0.86128 -0.89649,-0.86132 -0.53908,4e-5 -0.90236,0.11723 -1.08984,0.35156 l -1.37109,1.75781 -0.77344,0.28125 -0.52734,1.08984 -0.21094,0 -1.01953,1.19532 c -1.19533,1.99222 -2.02736,3.15238 -2.4961,3.48047 -0.58595,0.23441 -0.95509,0.43362 -1.10742,0.59765 -0.15235,0.1641 -0.28712,0.77347 -0.4043,1.82813 l -0.94921,1.01953 0,1.72265 -0.63282,1.51172 c 0.0469,0.42191 0.16406,0.69144 0.35157,0.8086 l 0.35156,0 c 0.72655,-0.23435 1.45311,-0.59763 2.17969,-1.08985 l 1.79296,-0.80859 1.30079,-0.35156 c 1.24217,-0.63279 2.00388,-0.93747 2.28515,-0.91407 l 0,-0.45703 0.91406,-0.35156 c 0.35155,-0.14059 0.62108,-0.29294 0.8086,-0.45703 l 0.80859,-0.77344 0,0.35156 2.28516,-1.79296 c 0.35154,-0.18747 0.52732,-0.42184 0.52734,-0.70313 l -0.0703,-0.52734 z"
         style="font-size:72px;font-weight:normal;font-family:Viner Hand ITC;-inkscape-font-specification:Viner Hand ITC"
         id="path2985" />
    </g>
  </g>
</svg>
