<svg xmlns="http://www.w3.org/2000/svg" width="280" height="332.24"><path d="M139.996 57.697c-51.336 0-93.03 43.588-93.03 97.28 0 53.69 41.693 97.31 93.03 97.31 11.057 0 21.656-2.044 31.498-5.755.603-.228 1.206-.46 1.803-.7.264-.103.53-.203.793-.31.063-.024.124-.054.186-.08 14.642-5.942 27.86-15.668 37.7-28.73 10.862-13.364 17.515-29.8 19.978-46.924.097-.664.18-1.33.265-2 .016-.14.044-.28.06-.423l.016-.13c.093-.775.174-1.547.25-2.325.057-.596.107-1.19.154-1.788.018-.223.046-.444.063-.667l.03-.423c.04-.585.063-1.17.094-1.756l.016-.292c.003-.065-.003-.13 0-.195.037-.77.072-1.54.093-2.31.246-9.174-.673-18.39-2.783-27.283l-.17.293c-10.394-41.857-46.794-72.793-90.047-72.793zm0 7.496c42.454 0 77.65 32.13 84.605 74.434l-19.572 32.925c-21.374-35.69-42.757-71.392-64.13-107.083L79.27 171.64l-.605.455-.358.244-22.34-35.948c8.173-40.7 42.662-71.2 84.03-71.2zm.202 38.778l13.557 25.365c-3.493 1.108-11.748-2.77-10.805 2.992v37.07c-6.62 2.178-4.837-4.423-4.96-9.04v-31.054c-2.944.968-13.048-2.363-9.327 2.617 1.454 3.54 5.967 8.912 5.596 11.35-3.425 1.113-11.638-2.783-10.62 2.99V169.4c-6.618 2.177-4.836-4.424-4.958-9.04v-17.12c-2.894-.983-12.518 2.175-10.26-1.97l12.467-23.363c2.21 3.072 4.48 9.844 6.653 10.698l12.655-24.632zm19.682 13.935l14.085 25.364c-3.425 1.112-11.37-2.516-11.333 2.227v23.9c-6.62 2.178-4.837-4.423-4.96-9.04v-17.12c-2.894-.982-12.517 2.176-10.26-1.968 4.157-7.786 8.31-15.58 12.468-23.365zm7.525 66.533s-.005 20.822 0 28.502c0 0-3.168-12.334-7.68-11.463-4.15 6.488-19.69 12.41-29.865 11.544-.255-.242 1.59-1.518 2.83-2.828 3.068-3.246 4.354-6.368 4.414-10.796.06-4.4-1.776-8.883-4.88-11.95-1.122-1.107-3.38-1.96-3.22-2.114 11.106-.648 25.596 3.87 30.736 12.78 5.486-.196 7.665-13.674 7.665-13.674zm-41.525 1.528c2.464 0 7.137 3.15 8.395 7.04 2.22 6.867 1.338 12.428-4.073 17.576-3.32 3.158-5.536 2.636-9.98-.47-2.313-1.617-5.735-5.466-7.603-8.245l3.294-2.568-3.31-2.49c.392-.565.834-1.16 1.32-1.788 3.047-3.94 9.81-9.056 11.956-9.056z" opacity=".9" fill="#f9f9f9"/><text style="line-height:125%;-inkscape-font-specification:Oswald Bold" x="221.428" y="478.996" font-size="27.021" font-weight="bold" letter-spacing="0" word-spacing="0" font-family="Oswald" transform="translate(-163.196 -443.11)"><tspan x="221.428" y="478.996" style="-inkscape-font-specification:Viner Hand ITC" font-size="48.638" font-weight="normal" fill="#f9f9f9" font-family="Viner Hand ITC">VILLA</tspan></text><text style="line-height:125%;-inkscape-font-specification:Oswald Bold" x="163.932" y="752.101" font-size="27.021" font-weight="bold" letter-spacing="0" word-spacing="0" font-family="Oswald" transform="translate(-163.196 -443.11)"><tspan x="163.932" y="752.101" style="-inkscape-font-specification:Viner Hand ITC" font-size="48.638" font-weight="normal" fill="#f9f9f9" font-family="Viner Hand ITC">ZEGUSCUA</tspan></text></svg>