<svg xmlns="http://www.w3.org/2000/svg" width="210mm" height="297mm"><path d="M349.125 368.938c-103.19 0-187 83.775-187 186.968 0 103.194 83.808 187.032 187 187.032 22.225 0 43.53-3.93 63.313-11.063 1.212-.437 2.424-.882 3.625-1.344.53-.198 1.065-.39 1.593-.592.126-.05.25-.107.375-.157 29.432-11.42 56-30.112 75.783-55.217 21.83-25.686 35.204-57.274 40.156-90.188.194-1.276.36-2.56.53-3.844.035-.27.09-.54.125-.81l.03-.25c.187-1.492.35-2.975.5-4.47.117-1.146.218-2.29.314-3.438.034-.427.09-.853.124-1.28.02-.272.043-.542.062-.813.082-1.127.125-2.25.188-3.376l.03-.563c.007-.123-.005-.25 0-.374.076-1.478.147-2.958.188-4.437.494-17.633-1.352-35.344-5.593-52.44l-.345.564c-20.892-80.448-94.058-139.906-181-139.906zm0 14.406c85.336 0 156.083 61.753 170.063 143.062l-39.344 63.282c-42.963-68.6-85.944-137.214-128.906-205.813L227.063 587.938l-1.22.875-.718.468-44.906-69.092c16.427-78.226 85.753-136.844 168.905-136.844zm.406 74.53c9.085 16.25 18.168 32.5 27.25 48.75-7.02 2.13-23.612-5.32-21.717 5.75v71.25c-13.305 4.186-9.723-8.5-9.97-17.374v-59.688c-5.918 1.86-26.23-4.54-18.75 5.032 2.924 6.802 11.995 17.128 11.25 21.812-6.882 2.14-23.392-5.348-21.343 5.75v44.47c-13.305 4.184-9.723-8.503-9.97-17.376v-32.906c-5.816-1.887-25.16 4.182-20.624-3.782l25.063-44.906c4.44 5.904 9.002 18.92 13.374 20.563l25.437-47.345zm39.564 26.782l28.312 48.75c-6.885 2.14-22.853-4.834-22.78 4.282v45.937c-13.305 4.185-9.724-8.502-9.97-17.375v-32.906c-5.817-1.887-25.16 4.182-20.625-3.782 8.357-14.963 16.708-29.942 25.064-44.906zM404.22 612.53s-.01 40.02 0 54.783c0 0-6.37-23.706-15.44-22.032-8.338 12.47-39.576 23.853-60.03 22.19-.512-.47 3.2-2.92 5.688-5.44 6.167-6.238 8.753-12.238 8.875-20.75.12-8.453-3.57-17.073-9.813-22.967-2.252-2.128-6.793-3.767-6.47-4.063 22.324-1.245 51.45 7.44 61.783 24.563 11.026-.376 15.406-26.282 15.406-26.282zm-83.47 2.94c4.954 0 14.345 6.05 16.875 13.53 4.464 13.2 2.69 23.886-8.188 33.78-6.67 6.07-11.127 5.067-20.062-.905-4.646-3.106-11.525-10.503-15.28-15.844l6.624-4.936-6.658-4.782c.79-1.087 1.68-2.23 2.657-3.437 6.123-7.57 19.714-17.406 24.03-17.406z" fill="#fff"/></svg>