<?xml version="1.0" encoding="UTF-8" standalone="no"?>
<!-- Created with Inkscape (http://www.inkscape.org/) -->

<svg
   xmlns:dc="http://purl.org/dc/elements/1.1/"
   xmlns:cc="http://creativecommons.org/ns#"
   xmlns:rdf="http://www.w3.org/1999/02/22-rdf-syntax-ns#"
   xmlns:svg="http://www.w3.org/2000/svg"
   xmlns="http://www.w3.org/2000/svg"
   xmlns:sodipodi="http://sodipodi.sourceforge.net/DTD/sodipodi-0.dtd"
   xmlns:inkscape="http://www.inkscape.org/namespaces/inkscape"
   width="280"
   height="332.24014"
   id="svg4647"
   version="1.1"
   inkscape:version="0.48.5 r10040"
   sodipodi:docname="logo.svg"
   inkscape:export-filename="C:\wamp\www\zeguscua\frontEndLib\img\logo.png"
   inkscape:export-xdpi="67.379997"
   inkscape:export-ydpi="67.379997">
  <defs
     id="defs4649" />
  <sodipodi:namedview
     id="base"
     pagecolor="#000000"
     bordercolor="#666666"
     borderopacity="1.0"
     inkscape:pageopacity="0"
     inkscape:pageshadow="2"
     inkscape:zoom="0.7"
     inkscape:cx="194.52005"
     inkscape:cy="150.69376"
     inkscape:document-units="px"
     inkscape:current-layer="layer1"
     showgrid="false"
     inkscape:window-width="1366"
     inkscape:window-height="705"
     inkscape:window-x="-8"
     inkscape:window-y="-8"
     inkscape:window-maximized="1"
     fit-margin-top="0"
     fit-margin-left="0"
     fit-margin-right="0"
     fit-margin-bottom="0" />
  <metadata
     id="metadata4652">
    <rdf:RDF>
      <cc:Work
         rdf:about="">
        <dc:format>image/svg+xml</dc:format>
        <dc:type
           rdf:resource="http://purl.org/dc/dcmitype/StillImage" />
        <dc:title></dc:title>
      </cc:Work>
    </rdf:RDF>
  </metadata>
  <g
     inkscape:label="Capa 1"
     inkscape:groupmode="layer"
     id="layer1"
     transform="translate(-163.19588,-443.11145)">
    <path
       style="opacity:0.9;fill:#f9f9f9;fill-opacity:1;stroke:none"
       d="m 303.19198,500.80854 c -51.33648,0 -93.03088,43.58777 -93.03088,97.27883 0,53.69105 41.69368,97.31136 93.03088,97.31136 11.05683,0 21.65547,-2.04411 31.49742,-5.75576 0.60298,-0.2274 1.20626,-0.45915 1.80341,-0.69915 0.26374,-0.10355 0.53003,-0.20292 0.79287,-0.30892 0.0628,-0.0259 0.12385,-0.0553 0.18656,-0.0813 14.64145,-5.94237 27.85858,-15.6679 37.70052,-28.73001 10.86112,-13.36393 17.51389,-29.79913 19.97738,-46.92407 0.0972,-0.66413 0.18007,-1.33144 0.2643,-1.99989 0.0176,-0.14128 0.0452,-0.28138 0.0622,-0.42274 0.005,-0.043 0.0103,-0.087 0.0155,-0.13007 0.0924,-0.77565 0.17346,-1.54729 0.24874,-2.32507 0.0577,-0.59617 0.10781,-1.19131 0.15547,-1.78851 0.0178,-0.22249 0.0458,-0.44401 0.0622,-0.66663 0.0103,-0.14093 0.0214,-0.28164 0.0311,-0.42274 0.0407,-0.58558 0.0622,-1.16973 0.0933,-1.75599 0.005,-0.0978 0.0107,-0.19489 0.0155,-0.29267 0.003,-0.0644 -0.003,-0.13061 0,-0.19511 0.0372,-0.76915 0.0727,-1.53893 0.0933,-2.3088 0.24575,-9.17381 -0.67273,-18.38862 -2.78284,-27.28295 l -0.17101,0.29266 c -10.39349,-41.85651 -46.79306,-72.79247 -90.046,-72.79247 z m 0,7.4955 c 42.45399,0 77.6497,32.12977 84.60462,74.43465 l -19.57317,32.92489 C 346.85005,579.97211 325.46706,544.27191 304.09368,508.58045 l -61.62673,106.17261 -0.60632,0.45526 -0.35758,0.24389 -22.34047,-35.94911 c 8.17283,-40.70016 42.66211,-71.19906 84.0294,-71.19906 z m 0.20211,38.77821 c 4.51887,8.45478 9.03773,16.90957 13.55664,25.36435 -3.49314,1.10822 -11.74744,-2.76889 -10.80489,2.9917 l 0,37.07099 c -6.6189,2.17761 -4.83692,-4.4235 -4.95937,-9.04011 l 0,-31.0551 c -2.94457,0.9679 -13.04899,-2.36256 -9.32796,2.61774 1.45432,3.53896 5.967,8.91176 5.59677,11.34893 -3.42411,1.11405 -11.63789,-2.78248 -10.61833,2.99169 l 0,23.13685 c -6.61891,2.17761 -4.83692,-4.4235 -4.95936,-9.04011 l 0,-17.12095 c -2.89414,-0.98179 -12.51734,2.17614 -10.26076,-1.96737 l 12.46837,-23.36448 c 2.20985,3.07176 4.47928,9.84361 6.65395,10.69856 l 12.65494,-24.63269 z m 19.682,13.93413 14.08522,25.36437 c -3.42538,1.11273 -11.36949,-2.51523 -11.33347,2.22751 l 0,23.90103 c -6.61888,2.17761 -4.83694,-4.4235 -4.95937,-9.04011 l 0,-17.12095 c -2.89416,-0.98179 -12.51733,2.17614 -10.26076,-1.96737 4.15709,-7.78567 8.31134,-15.5788 12.46838,-23.36448 z m 7.52455,66.53268 c 0,0 -0.005,20.82201 0,28.50238 0,0 -3.16791,-12.33389 -7.68002,-11.46273 -4.14886,6.48816 -19.6895,12.40977 -29.86503,11.54403 -0.25448,-0.24326 1.59132,-1.51917 2.82949,-2.8291 3.06844,-3.24629 4.35472,-6.36782 4.41523,-10.79611 0.0601,-4.39876 -1.7765,-8.88347 -4.88163,-11.95052 -1.12045,-1.10671 -3.37936,-1.95962 -3.21815,-2.1137 11.10562,-0.64758 25.59513,3.87027 30.73564,12.77974 5.48536,-0.19518 7.66447,-13.67399 7.66447,-13.67399 z m -41.52497,1.52837 c 2.46433,0 7.13671,3.14865 8.39516,7.04023 2.2207,6.86721 1.33832,12.4277 -4.07321,17.5762 -3.31843,3.15714 -5.53585,2.63562 -9.98092,-0.47152 -2.31157,-1.61578 -5.73359,-5.46491 -7.60229,-8.24341 l 3.29588,-2.56896 -3.31143,-2.48765 c 0.39282,-0.56559 0.83548,-1.16018 1.32147,-1.78852 3.04668,-3.93905 9.80806,-9.05637 11.95534,-9.05637 z"
       id="path3783"
       inkscape:export-filename="C:\wamp\www\zeguscua\frontEndLib\img\logo.png"
       inkscape:export-xdpi="43.426636"
       inkscape:export-ydpi="43.426636"
       inkscape:connector-curvature="0" />
    <text
       xml:space="preserve"
       style="font-size:27.02101517px;font-style:normal;font-variant:normal;font-weight:bold;font-stretch:normal;line-height:125%;letter-spacing:0px;word-spacing:0px;fill:#000000;fill-opacity:1;stroke:none;font-family:Oswald;-inkscape-font-specification:Oswald Bold"
       x="221.42828"
       y="478.99609"
       id="text2984"
       sodipodi:linespacing="125%"
       inkscape:export-filename="C:\wamp\www\zeguscua\frontEndLib\img\logo.png"
       inkscape:export-xdpi="43.426636"
       inkscape:export-ydpi="43.426636"><tspan
         sodipodi:role="line"
         id="tspan2986"
         x="221.42828"
         y="478.99609"
         style="font-size:48.63782883px;font-style:normal;font-variant:normal;font-weight:normal;font-stretch:normal;fill:#f9f9f9;font-family:Viner Hand ITC;-inkscape-font-specification:Viner Hand ITC">VILLA</tspan></text>
    <text
       xml:space="preserve"
       style="font-size:27.02101517px;font-style:normal;font-variant:normal;font-weight:bold;font-stretch:normal;line-height:125%;letter-spacing:0px;word-spacing:0px;fill:#000000;fill-opacity:1;stroke:none;font-family:Oswald;-inkscape-font-specification:Oswald Bold"
       x="163.9321"
       y="752.10138"
       id="text2988"
       sodipodi:linespacing="125%"
       inkscape:export-filename="C:\wamp\www\zeguscua\frontEndLib\img\logo.png"
       inkscape:export-xdpi="43.426636"
       inkscape:export-ydpi="43.426636"><tspan
         sodipodi:role="line"
         id="tspan2990"
         x="163.9321"
         y="752.10138"
         style="font-size:48.63782883px;font-style:normal;font-variant:normal;font-weight:normal;font-stretch:normal;fill:#f9f9f9;font-family:Viner Hand ITC;-inkscape-font-specification:Viner Hand ITC">ZEGUSCUA</tspan></text>
  </g>
</svg>
