<?xml version="1.0" encoding="UTF-8" standalone="no"?>
<!-- Created with Inkscape (http://www.inkscape.org/) -->

<svg
   xmlns:dc="http://purl.org/dc/elements/1.1/"
   xmlns:cc="http://creativecommons.org/ns#"
   xmlns:rdf="http://www.w3.org/1999/02/22-rdf-syntax-ns#"
   xmlns:svg="http://www.w3.org/2000/svg"
   xmlns="http://www.w3.org/2000/svg"
   xmlns:sodipodi="http://sodipodi.sourceforge.net/DTD/sodipodi-0.dtd"
   xmlns:inkscape="http://www.inkscape.org/namespaces/inkscape"
   width="210mm"
   height="297mm"
   id="svg4647"
   version="1.1"
   inkscape:version="0.48.5 r10040"
   sodipodi:docname="logo.svg"
   inkscape:export-filename="C:\wamp\www\zeguscua\frontEndLib\img\logo.png"
   inkscape:export-xdpi="67.379997"
   inkscape:export-ydpi="67.379997">
  <defs
     id="defs4649" />
  <sodipodi:namedview
     id="base"
     pagecolor="#ffffff"
     bordercolor="#666666"
     borderopacity="1.0"
     inkscape:pageopacity="0.0"
     inkscape:pageshadow="2"
     inkscape:zoom="0.7"
     inkscape:cx="387.32073"
     inkscape:cy="520"
     inkscape:document-units="px"
     inkscape:current-layer="layer1"
     showgrid="false"
     inkscape:window-width="1366"
     inkscape:window-height="705"
     inkscape:window-x="-8"
     inkscape:window-y="-8"
     inkscape:window-maximized="1" />
  <metadata
     id="metadata4652">
    <rdf:RDF>
      <cc:Work
         rdf:about="">
        <dc:format>image/svg+xml</dc:format>
        <dc:type
           rdf:resource="http://purl.org/dc/dcmitype/StillImage" />
        <dc:title></dc:title>
      </cc:Work>
    </rdf:RDF>
  </metadata>
  <g
     inkscape:label="Capa 1"
     inkscape:groupmode="layer"
     id="layer1">
    <path
       style="opacity:1;fill:#ffffff;fill-opacity:1;stroke:none"
       d="M 349.125 368.9375 C 245.9343 368.9375 162.125 452.71267 162.125 555.90625 C 162.125 659.09978 245.93285 742.9375 349.125 742.9375 C 371.35017 742.9375 392.65433 739.00875 412.4375 731.875 C 413.64955 731.43794 414.86218 730.99252 416.0625 730.53125 C 416.59264 730.33221 417.12792 730.14124 417.65625 729.9375 C 417.78244 729.8877 417.90519 729.83134 418.03125 729.78125 C 447.4618 718.36009 474.02936 699.66773 493.8125 674.5625 C 515.64428 648.8772 529.01691 617.28893 533.96875 584.375 C 534.16406 583.09856 534.33069 581.816 534.5 580.53125 C 534.5353 580.25971 534.5908 579.99044 534.625 579.71875 C 534.6355 579.63605 534.64585 579.55149 534.65625 579.46875 C 534.84195 577.97796 535.00493 576.49489 535.15625 575 C 535.27223 573.85417 535.37296 572.7103 535.46875 571.5625 C 535.50445 571.13487 535.56085 570.70912 535.59375 570.28125 C 535.61435 570.01039 535.63675 569.73993 535.65625 569.46875 C 535.73805 568.34327 535.78134 567.22054 535.84375 566.09375 C 535.85415 565.90585 535.8652 565.71918 535.875 565.53125 C 535.881 565.40735 535.869 565.28022 535.875 565.15625 C 535.9498 563.67794 536.02104 562.19844 536.0625 560.71875 C 536.55648 543.0868 534.71027 525.37605 530.46875 508.28125 L 530.125 508.84375 C 509.23334 428.39604 436.06709 368.9375 349.125 368.9375 z M 349.125 383.34375 C 434.46113 383.34375 505.20751 445.09678 519.1875 526.40625 L 479.84375 589.6875 C 436.88144 521.08893 393.8998 452.47357 350.9375 383.875 L 227.0625 587.9375 L 225.84375 588.8125 L 225.125 589.28125 L 180.21875 520.1875 C 196.64684 441.96228 265.97322 383.34375 349.125 383.34375 z M 349.53125 457.875 C 358.61458 474.125 367.69785 490.375 376.78125 506.625 C 369.75975 508.75497 353.1679 501.30321 355.0625 512.375 L 355.0625 583.625 C 341.75795 587.81035 345.33988 575.12309 345.09375 566.25 L 345.09375 506.5625 C 339.17493 508.42278 318.86417 502.02168 326.34375 511.59375 C 329.26705 518.39558 338.33793 528.72205 337.59375 533.40625 C 330.71099 535.54744 314.2006 528.05836 316.25 539.15625 L 316.25 583.625 C 302.94543 587.81035 306.52738 575.12309 306.28125 566.25 L 306.28125 533.34375 C 300.46379 531.45677 281.12034 537.52627 285.65625 529.5625 L 310.71875 484.65625 C 315.16073 490.56012 319.72247 503.57554 324.09375 505.21875 L 349.53125 457.875 z M 389.09375 484.65625 L 417.40625 533.40625 C 410.52095 535.5449 394.5526 528.57201 394.625 537.6875 L 394.625 583.625 C 381.3205 587.81035 384.90235 575.12309 384.65625 566.25 L 384.65625 533.34375 C 378.83875 531.45677 359.49535 537.52627 364.03125 529.5625 C 372.38735 514.59852 380.73775 499.62023 389.09375 484.65625 z M 404.21875 612.53125 C 404.21875 612.53125 404.20875 652.55091 404.21875 667.3125 C 404.21875 667.3125 397.85098 643.60689 388.78125 645.28125 C 380.44169 657.75142 349.20367 669.13268 328.75 667.46875 C 328.23846 667.00121 331.94869 664.54891 334.4375 662.03125 C 340.60532 655.79192 343.19087 649.79237 343.3125 641.28125 C 343.43341 632.82689 339.74159 624.20734 333.5 618.3125 C 331.24781 616.18542 326.70721 614.54613 327.03125 614.25 C 349.35449 613.00535 378.47965 621.68862 388.8125 638.8125 C 399.83854 638.43737 404.21875 612.53125 404.21875 612.53125 z M 320.75 615.46875 C 325.70352 615.46875 335.09541 621.52044 337.625 629 C 342.08881 642.1987 340.31514 652.88589 329.4375 662.78125 C 322.76718 668.84923 318.30998 667.84688 309.375 661.875 C 304.72855 658.76947 297.84999 651.37151 294.09375 646.03125 L 300.71875 641.09375 L 294.0625 636.3125 C 294.8521 635.22546 295.74188 634.08265 296.71875 632.875 C 302.84284 625.30418 316.43379 615.46875 320.75 615.46875 z "
       id="path3783"
       inkscape:export-filename="C:\wamp\www\zeguscua\frontEndLib\img\logo.png"
       inkscape:export-xdpi="67.379997"
       inkscape:export-ydpi="67.379997" />
  </g>
</svg>
